<svg xmlns="http://www.w3.org/2000/svg" xmlns:xlink="http://www.w3.org/1999/xlink" contentStyleType="text/css" height="2303px" preserveAspectRatio="none" style="width:1128px;height:2303px;background:#FFFFFF;" version="1.1" viewBox="0 0 1128 2303" width="1128px" zoomAndPan="magnify"><defs/><g><text fill="#000000" font-family="sans-serif" font-size="14" font-weight="bold" lengthAdjust="spacing" textLength="253.374" x="436.2613" y="32.9951">ranger-config-installation-script</text><ellipse cx="605.4769" cy="57.2969" fill="#222222" rx="10" ry="10" style="stroke:#222222;stroke-width:1.0;"/><rect fill="#F1F1F1" height="33.9688" rx="12.5" ry="12.5" style="stroke:#181818;stroke-width:0.5;" width="277.2969" x="466.8285" y="87.2969"/><text fill="#000000" font-family="sans-serif" font-size="12" lengthAdjust="spacing" textLength="257.2969" x="476.8285" y="108.4355">Ask user if they want to install oh-my-posh</text><polygon fill="#F1F1F1" points="512.028,141.2656,698.9259,141.2656,710.9259,153.2656,698.9259,165.2656,512.028,165.2656,500.028,153.2656,512.028,141.2656" style="stroke:#181818;stroke-width:0.5;"/><text fill="#000000" font-family="sans-serif" font-size="11" lengthAdjust="spacing" textLength="186.8979" x="512.028" y="157.0737">User wants to install oh-my-posh?</text><text fill="#000000" font-family="sans-serif" font-size="11" lengthAdjust="spacing" textLength="19.0083" x="481.0197" y="150.6714">yes</text><text fill="#000000" font-family="sans-serif" font-size="11" lengthAdjust="spacing" textLength="13.7017" x="710.9259" y="150.6714">no</text><rect fill="#F1F1F1" height="33.9688" rx="12.5" ry="12.5" style="stroke:#181818;stroke-width:0.5;" width="197.6797" x="346.1827" y="175.2656"/><text fill="#000000" font-family="sans-serif" font-size="12" lengthAdjust="spacing" textLength="177.6797" x="356.1827" y="196.4043">Check if install-posh.sh exists</text><polygon fill="#F1F1F1" points="384.5468,229.2344,505.4984,229.2344,517.4984,241.2344,505.4984,253.2344,384.5468,253.2344,372.5468,241.2344,384.5468,229.2344" style="stroke:#181818;stroke-width:0.5;"/><text fill="#000000" font-family="sans-serif" font-size="11" lengthAdjust="spacing" textLength="120.9517" x="384.5468" y="245.0425">install-posh.sh exists?</text><text fill="#000000" font-family="sans-serif" font-size="11" lengthAdjust="spacing" textLength="19.0083" x="353.5385" y="238.6401">yes</text><text fill="#000000" font-family="sans-serif" font-size="11" lengthAdjust="spacing" textLength="13.7017" x="517.4984" y="238.6401">no</text><rect fill="#F1F1F1" height="33.9688" rx="12.5" ry="12.5" style="stroke:#181818;stroke-width:0.5;" width="134.0996" x="283.7565" y="263.2344"/><text fill="#000000" font-family="sans-serif" font-size="12" lengthAdjust="spacing" textLength="114.0996" x="293.7565" y="284.373">Run install-posh.sh</text><rect fill="#F1F1F1" height="33.9688" rx="12.5" ry="12.5" style="stroke:#181818;stroke-width:0.5;" width="202.7656" x="437.8561" y="263.2344"/><text fill="#000000" font-family="sans-serif" font-size="12" lengthAdjust="spacing" textLength="182.7656" x="447.8561" y="284.373">Handle missing install-posh.sh</text><polygon fill="#F1F1F1" points="445.0226,303.2031,457.0226,315.2031,445.0226,327.2031,433.0226,315.2031,445.0226,303.2031" style="stroke:#181818;stroke-width:0.5;"/><rect fill="#F1F1F1" height="33.9688" rx="12.5" ry="12.5" style="stroke:#181818;stroke-width:0.5;" width="190.6191" x="670.6217" y="175.2656"/><text fill="#000000" font-family="sans-serif" font-size="12" lengthAdjust="spacing" textLength="170.6191" x="680.6217" y="196.4043">Skip oh-my-posh installation</text><polygon fill="#F1F1F1" points="605.4769,333.2031,617.4769,345.2031,605.4769,357.2031,593.4769,345.2031,605.4769,333.2031" style="stroke:#181818;stroke-width:0.5;"/><rect fill="#F1F1F1" height="33.9688" rx="12.5" ry="12.5" style="stroke:#181818;stroke-width:0.5;" width="128.041" x="541.4564" y="377.2031"/><text fill="#000000" font-family="sans-serif" font-size="12" lengthAdjust="spacing" textLength="108.041" x="551.4564" y="398.3418">Determine the OS</text><polygon fill="#F1F1F1" points="567.275,431.1719,643.6788,431.1719,655.6788,443.1719,643.6788,455.1719,567.275,455.1719,555.275,443.1719,567.275,431.1719" style="stroke:#181818;stroke-width:0.5;"/><text fill="#000000" font-family="sans-serif" font-size="11" lengthAdjust="spacing" textLength="76.4038" x="567.275" y="446.98">OS is macOS?</text><text fill="#000000" font-family="sans-serif" font-size="11" lengthAdjust="spacing" textLength="19.0083" x="536.2667" y="440.5776">yes</text><text fill="#000000" font-family="sans-serif" font-size="11" lengthAdjust="spacing" textLength="13.7017" x="655.6788" y="440.5776">no</text><rect fill="#F1F1F1" height="33.9688" rx="12.5" ry="12.5" style="stroke:#181818;stroke-width:0.5;" width="279.9277" x="193.1505" y="465.1719"/><text fill="#000000" font-family="sans-serif" font-size="12" lengthAdjust="spacing" textLength="259.9277" x="203.1505" y="486.3105">Set package manager to Homebrew (brew)</text><polygon fill="#F1F1F1" points="844.391,465.1719,911.288,465.1719,923.288,477.1719,911.288,489.1719,844.391,489.1719,832.391,477.1719,844.391,465.1719" style="stroke:#181818;stroke-width:0.5;"/><text fill="#000000" font-family="sans-serif" font-size="11" lengthAdjust="spacing" textLength="66.897" x="844.391" y="480.98">OS is Linux?</text><text fill="#000000" font-family="sans-serif" font-size="11" lengthAdjust="spacing" textLength="19.0083" x="813.3827" y="474.5776">yes</text><text fill="#000000" font-family="sans-serif" font-size="11" lengthAdjust="spacing" textLength="13.7017" x="923.288" y="474.5776">no</text><rect fill="#F1F1F1" height="33.9688" rx="12.5" ry="12.5" style="stroke:#181818;stroke-width:0.5;" width="256.9648" x="590.9454" y="499.1719"/><text fill="#000000" font-family="sans-serif" font-size="12" lengthAdjust="spacing" textLength="236.9648" x="600.9454" y="520.3105">Check if package manager is dnf or apt</text><polygon fill="#F1F1F1" points="690.4508,553.1406,748.4049,553.1406,760.4049,565.1406,748.4049,577.1406,690.4508,577.1406,678.4508,565.1406,690.4508,553.1406" style="stroke:#181818;stroke-width:0.5;"/><text fill="#000000" font-family="sans-serif" font-size="11" lengthAdjust="spacing" textLength="57.9541" x="690.4508" y="568.9487">Using dnf?</text><text fill="#000000" font-family="sans-serif" font-size="11" lengthAdjust="spacing" textLength="19.0083" x="659.4425" y="562.5464">yes</text><text fill="#000000" font-family="sans-serif" font-size="11" lengthAdjust="spacing" textLength="13.7017" x="760.4049" y="562.5464">no</text><rect fill="#F1F1F1" height="33.9688" rx="12.5" ry="12.5" style="stroke:#181818;stroke-width:0.5;" width="196.9355" x="513.0782" y="587.1406"/><text fill="#000000" font-family="sans-serif" font-size="12" lengthAdjust="spacing" textLength="176.9355" x="523.0782" y="608.2793">Set package manager to DNF</text><rect fill="#F1F1F1" height="33.9688" rx="12.5" ry="12.5" style="stroke:#181818;stroke-width:0.5;" width="194.5918" x="730.0138" y="587.1406"/><text fill="#000000" font-family="sans-serif" font-size="12" lengthAdjust="spacing" textLength="174.5918" x="740.0138" y="608.2793">Set package manager to APT</text><polygon fill="#F1F1F1" points="719.4279,627.1094,731.4279,639.1094,719.4279,651.1094,707.4279,639.1094,719.4279,627.1094" style="stroke:#181818;stroke-width:0.5;"/><rect fill="#F1F1F1" height="33.9688" rx="12.5" ry="12.5" style="stroke:#181818;stroke-width:0.5;" width="163.291" x="954.6056" y="499.1719"/><text fill="#000000" font-family="sans-serif" font-size="12" lengthAdjust="spacing" textLength="143.291" x="964.6056" y="520.3105">Handle unsupported OS</text><ellipse cx="1036.2511" cy="564.1406" fill="none" rx="11" ry="11" style="stroke:#222222;stroke-width:1.0;"/><ellipse cx="1036.2511" cy="564.1406" fill="#222222" rx="6" ry="6" style="stroke:#222222;stroke-width:1.0;"/><polygon fill="#F1F1F1" points="605.4769,661.1094,617.4769,673.1094,605.4769,685.1094,593.4769,673.1094,605.4769,661.1094" style="stroke:#181818;stroke-width:0.5;"/><rect fill="#F1F1F1" height="33.9688" rx="12.5" ry="12.5" style="stroke:#181818;stroke-width:0.5;" width="225.793" x="492.5804" y="705.1094"/><text fill="#000000" font-family="sans-serif" font-size="12" lengthAdjust="spacing" textLength="205.793" x="502.5804" y="726.248">Make scripts/helper.sh executable</text><rect fill="#F1F1F1" height="33.9688" rx="12.5" ry="12.5" style="stroke:#181818;stroke-width:0.5;" width="164.9551" x="522.9994" y="759.0781"/><text fill="#000000" font-family="sans-serif" font-size="12" lengthAdjust="spacing" textLength="144.9551" x="532.9994" y="780.2168">Source scripts/helper.sh</text><rect fill="#F1F1F1" height="33.9688" rx="12.5" ry="12.5" style="stroke:#181818;stroke-width:0.5;" width="329.0938" x="440.9301" y="861.4492"/><text fill="#000000" font-family="sans-serif" font-size="12" lengthAdjust="spacing" textLength="309.0938" x="450.9301" y="882.5879">Replace ranger commands with Linux-specific ones</text><polygon fill="#F1F1F1" points="572.0284,813.0469,638.9254,813.0469,650.9254,825.0469,638.9254,837.0469,572.0284,837.0469,560.0284,825.0469,572.0284,813.0469" style="stroke:#181818;stroke-width:0.5;"/><text fill="#000000" font-family="sans-serif" font-size="11" lengthAdjust="spacing" textLength="19.0083" x="609.4769" y="847.2573">yes</text><text fill="#000000" font-family="sans-serif" font-size="11" lengthAdjust="spacing" textLength="66.897" x="572.0284" y="828.855">OS is Linux?</text><polygon fill="#F1F1F1" points="605.4769,915.418,617.4769,927.418,605.4769,939.418,593.4769,927.418,605.4769,915.418" style="stroke:#181818;stroke-width:0.5;"/><rect fill="#F1F1F1" height="33.9688" rx="12.5" ry="12.5" style="stroke:#181818;stroke-width:0.5;" width="360.8809" x="425.0365" y="959.418"/><text fill="#000000" font-family="sans-serif" font-size="12" lengthAdjust="spacing" textLength="340.8809" x="435.0365" y="980.5566">Check if Visual Studio Code (code) or Codium is installed</text><polygon fill="#F1F1F1" points="444.653,1013.3867,766.3009,1013.3867,778.3009,1025.3867,766.3009,1037.3867,444.653,1037.3867,432.653,1025.3867,444.653,1013.3867" style="stroke:#181818;stroke-width:0.5;"/><text fill="#000000" font-family="sans-serif" font-size="11" lengthAdjust="spacing" textLength="321.6479" x="444.653" y="1029.1948">Neither Visual Studio Code (code) nor Codium is installed?</text><text fill="#000000" font-family="sans-serif" font-size="11" lengthAdjust="spacing" textLength="19.0083" x="413.6447" y="1022.7925">yes</text><text fill="#000000" font-family="sans-serif" font-size="11" lengthAdjust="spacing" textLength="13.7017" x="778.3009" y="1022.7925">no</text><rect fill="#F1F1F1" height="33.9688" rx="12.5" ry="12.5" style="stroke:#181818;stroke-width:0.5;" width="139.584" x="238.6453" y="1047.3867"/><text fill="#000000" font-family="sans-serif" font-size="12" lengthAdjust="spacing" textLength="119.584" x="248.6453" y="1068.5254">Update package list</text><rect fill="#F1F1F1" height="33.9688" rx="12.5" ry="12.5" style="stroke:#181818;stroke-width:0.5;" width="143.7148" x="236.5798" y="1101.3555"/><text fill="#000000" font-family="sans-serif" font-size="12" lengthAdjust="spacing" textLength="123.7148" x="246.5798" y="1122.4941">Install dependencies</text><polygon fill="#F1F1F1" points="270.2354,1155.3242,346.6392,1155.3242,358.6392,1167.3242,346.6392,1179.3242,270.2354,1179.3242,258.2354,1167.3242,270.2354,1155.3242" style="stroke:#181818;stroke-width:0.5;"/><text fill="#000000" font-family="sans-serif" font-size="11" lengthAdjust="spacing" textLength="76.4038" x="270.2354" y="1171.1323">OS is macOS?</text><text fill="#000000" font-family="sans-serif" font-size="11" lengthAdjust="spacing" textLength="19.0083" x="239.2271" y="1164.73">yes</text><text fill="#000000" font-family="sans-serif" font-size="11" lengthAdjust="spacing" textLength="13.7017" x="358.6392" y="1164.73">no</text><rect fill="#F1F1F1" height="33.9688" rx="12.5" ry="12.5" style="stroke:#181818;stroke-width:0.5;" width="226.959" x="11" y="1189.3242"/><text fill="#000000" font-family="sans-serif" font-size="12" lengthAdjust="spacing" textLength="206.959" x="21" y="1210.4629">Install VSCodium using Homebrew</text><polygon fill="#F1F1F1" points="454.7302,1189.3242,530.0598,1189.3242,542.0598,1201.3242,530.0598,1213.3242,454.7302,1213.3242,442.7302,1201.3242,454.7302,1189.3242" style="stroke:#181818;stroke-width:0.5;"/><text fill="#000000" font-family="sans-serif" font-size="11" lengthAdjust="spacing" textLength="75.3296" x="454.7302" y="1205.1323">OS is Fedora?</text><text fill="#000000" font-family="sans-serif" font-size="11" lengthAdjust="spacing" textLength="19.0083" x="423.7219" y="1198.73">yes</text><text fill="#000000" font-family="sans-serif" font-size="11" lengthAdjust="spacing" textLength="13.7017" x="542.0598" y="1198.73">no</text><rect fill="#F1F1F1" height="33.9688" rx="12.5" ry="12.5" style="stroke:#181818;stroke-width:0.5;" width="186.8926" x="267.959" y="1223.3242"/><text fill="#000000" font-family="sans-serif" font-size="12" lengthAdjust="spacing" textLength="166.8926" x="277.959" y="1244.4629">Install VSCodium using DNF</text><rect fill="#F1F1F1" height="33.9688" rx="12.5" ry="12.5" style="stroke:#181818;stroke-width:0.5;" width="297.0664" x="474.8516" y="1223.3242"/><text fill="#000000" font-family="sans-serif" font-size="12" lengthAdjust="spacing" textLength="277.0664" x="484.8516" y="1244.4629">Add VSCodium repository key and sources list</text><rect fill="#F1F1F1" height="33.9688" rx="12.5" ry="12.5" style="stroke:#181818;stroke-width:0.5;" width="176.6621" x="535.0537" y="1277.293"/><text fill="#000000" font-family="sans-serif" font-size="12" lengthAdjust="spacing" textLength="156.6621" x="545.0537" y="1298.4316">Update package list again</text><rect fill="#F1F1F1" height="33.9688" rx="12.5" ry="12.5" style="stroke:#181818;stroke-width:0.5;" width="121.7305" x="562.5195" y="1331.2617"/><text fill="#000000" font-family="sans-serif" font-size="12" lengthAdjust="spacing" textLength="101.7305" x="572.5195" y="1352.4004">Install VSCodium</text><polygon fill="#F1F1F1" points="492.395,1371.2305,504.395,1383.2305,492.395,1395.2305,480.395,1383.2305,492.395,1371.2305" style="stroke:#181818;stroke-width:0.5;"/><polygon fill="#F1F1F1" points="308.4373,1401.2305,320.4373,1413.2305,308.4373,1425.2305,296.4373,1413.2305,308.4373,1401.2305" style="stroke:#181818;stroke-width:0.5;"/><rect fill="#F1F1F1" height="33.9688" rx="12.5" ry="12.5" style="stroke:#181818;stroke-width:0.5;" width="181.1973" x="811.918" y="1047.3867"/><text fill="#000000" font-family="sans-serif" font-size="12" lengthAdjust="spacing" textLength="161.1973" x="821.918" y="1068.5254">Skip VSCodium installation</text><polygon fill="#F1F1F1" points="605.4769,1431.2305,617.4769,1443.2305,605.4769,1455.2305,593.4769,1443.2305,605.4769,1431.2305" style="stroke:#181818;stroke-width:0.5;"/><rect fill="#F1F1F1" height="33.9688" rx="12.5" ry="12.5" style="stroke:#181818;stroke-width:0.5;" width="194.5273" x="508.2133" y="1475.2305"/><text fill="#000000" font-family="sans-serif" font-size="12" lengthAdjust="spacing" textLength="174.5273" x="518.2133" y="1496.3691">Check if $HOME/.zshrc exists</text><polygon fill="#F1F1F1" points="568.4835,1529.1992,642.4703,1529.1992,654.4703,1541.1992,642.4703,1553.1992,568.4835,1553.1992,556.4835,1541.1992,568.4835,1529.1992" style="stroke:#181818;stroke-width:0.5;"/><text fill="#000000" font-family="sans-serif" font-size="11" lengthAdjust="spacing" textLength="73.9868" x="568.4835" y="1545.0073">.zshrc exists?</text><text fill="#000000" font-family="sans-serif" font-size="11" lengthAdjust="spacing" textLength="19.0083" x="537.4752" y="1538.605">yes</text><text fill="#000000" font-family="sans-serif" font-size="11" lengthAdjust="spacing" textLength="13.7017" x="654.4703" y="1538.605">no</text><rect fill="#F1F1F1" height="33.9688" rx="12.5" ry="12.5" style="stroke:#181818;stroke-width:0.5;" width="152.7793" x="444.0087" y="1563.1992"/><text fill="#000000" font-family="sans-serif" font-size="12" lengthAdjust="spacing" textLength="132.7793" x="454.0087" y="1584.3379">Handle existing .zshrc</text><rect fill="#F1F1F1" height="33.9688" rx="12.5" ry="12.5" style="stroke:#181818;stroke-width:0.5;" width="147.5352" x="616.788" y="1563.1992"/><text fill="#000000" font-family="sans-serif" font-size="12" lengthAdjust="spacing" textLength="127.5352" x="626.788" y="1584.3379">Create $HOME/.zshrc</text><polygon fill="#F1F1F1" points="605.4769,1603.168,617.4769,1615.168,605.4769,1627.168,593.4769,1615.168,605.4769,1603.168" style="stroke:#181818;stroke-width:0.5;"/><rect fill="#F1F1F1" height="33.9688" rx="12.5" ry="12.5" style="stroke:#181818;stroke-width:0.5;" width="344.8848" x="433.0345" y="1647.168"/><text fill="#000000" font-family="sans-serif" font-size="12" lengthAdjust="spacing" textLength="324.8848" x="443.0345" y="1668.3066">Ensure correct code / codium alias is present in .zshrc</text><polygon fill="#F1F1F1" points="506.2567,1701.1367,704.6971,1701.1367,716.6971,1713.1367,704.6971,1725.1367,506.2567,1725.1367,494.2567,1713.1367,506.2567,1701.1367" style="stroke:#181818;stroke-width:0.5;"/><text fill="#000000" font-family="sans-serif" font-size="11" lengthAdjust="spacing" textLength="198.4404" x="506.2567" y="1716.9448">Codium is installed and code is not?</text><text fill="#000000" font-family="sans-serif" font-size="11" lengthAdjust="spacing" textLength="19.0083" x="475.2484" y="1710.5425">yes</text><text fill="#000000" font-family="sans-serif" font-size="11" lengthAdjust="spacing" textLength="13.7017" x="716.6971" y="1710.5425">no</text><rect fill="#F1F1F1" height="33.9688" rx="12.5" ry="12.5" style="stroke:#181818;stroke-width:0.5;" width="162.7402" x="356.5045" y="1735.1367"/><text fill="#000000" font-family="sans-serif" font-size="12" lengthAdjust="spacing" textLength="142.7402" x="366.5045" y="1756.2754">Check for alias in .zshrc</text><polygon fill="#F1F1F1" points="356.2286,1789.1055,519.5206,1789.1055,531.5206,1801.1055,519.5206,1813.1055,356.2286,1813.1055,344.2286,1801.1055,356.2286,1789.1055" style="stroke:#181818;stroke-width:0.5;"/><text fill="#000000" font-family="sans-serif" font-size="11" lengthAdjust="spacing" textLength="163.292" x="356.2286" y="1804.9136">Alias 'code=codium' present?</text><text fill="#000000" font-family="sans-serif" font-size="11" lengthAdjust="spacing" textLength="19.0083" x="325.2203" y="1798.5112">yes</text><text fill="#000000" font-family="sans-serif" font-size="11" lengthAdjust="spacing" textLength="13.7017" x="531.5206" y="1798.5112">no</text><rect fill="#F1F1F1" height="33.9688" rx="12.5" ry="12.5" style="stroke:#181818;stroke-width:0.5;" width="144.9043" x="261.7765" y="1823.1055"/><text fill="#000000" font-family="sans-serif" font-size="12" lengthAdjust="spacing" textLength="124.9043" x="271.7765" y="1844.2441">Handle existing alias</text><rect fill="#F1F1F1" height="33.9688" rx="12.5" ry="12.5" style="stroke:#181818;stroke-width:0.5;" width="223.6543" x="429.6935" y="1823.1055"/><text fill="#000000" font-family="sans-serif" font-size="12" lengthAdjust="spacing" textLength="203.6543" x="439.6935" y="1844.2441">Add alias 'code=codium' to .zshrc</text><polygon fill="#F1F1F1" points="437.8746,1863.0742,449.8746,1875.0742,437.8746,1887.0742,425.8746,1875.0742,437.8746,1863.0742" style="stroke:#181818;stroke-width:0.5;"/><rect fill="#F1F1F1" height="33.9688" rx="12.5" ry="12.5" style="stroke:#181818;stroke-width:0.5;" width="179.4629" x="683.3478" y="1735.1367"/><text fill="#000000" font-family="sans-serif" font-size="12" lengthAdjust="spacing" textLength="159.4629" x="693.3478" y="1756.2754">Skip Codium alias addition</text><polygon fill="#F1F1F1" points="605.4769,1893.0742,617.4769,1905.0742,605.4769,1917.0742,593.4769,1905.0742,605.4769,1893.0742" style="stroke:#181818;stroke-width:0.5;"/><rect fill="#F1F1F1" height="33.9688" rx="12.5" ry="12.5" style="stroke:#181818;stroke-width:0.5;" width="252.1191" x="479.4174" y="1937.0742"/><text fill="#000000" font-family="sans-serif" font-size="12" lengthAdjust="spacing" textLength="232.1191" x="489.4174" y="1958.2129">Define 'cdd' function for ranger launch</text><rect fill="#F1F1F1" height="33.9688" rx="12.5" ry="12.5" style="stroke:#181818;stroke-width:0.5;" width="184.1328" x="513.4105" y="1991.043"/><text fill="#000000" font-family="sans-serif" font-size="12" lengthAdjust="spacing" textLength="164.1328" x="523.4105" y="2012.1816">Check for function in .zshrc</text><polygon fill="#F1F1F1" points="541.3085,2045.0117,669.6454,2045.0117,681.6454,2057.0117,669.6454,2069.0117,541.3085,2069.0117,529.3085,2057.0117,541.3085,2045.0117" style="stroke:#181818;stroke-width:0.5;"/><text fill="#000000" font-family="sans-serif" font-size="11" lengthAdjust="spacing" textLength="128.3369" x="541.3085" y="2060.8198">Function 'cdd' present?</text><text fill="#000000" font-family="sans-serif" font-size="11" lengthAdjust="spacing" textLength="19.0083" x="510.3002" y="2054.4175">yes</text><text fill="#000000" font-family="sans-serif" font-size="11" lengthAdjust="spacing" textLength="13.7017" x="681.6454" y="2054.4175">no</text><rect fill="#F1F1F1" height="33.9688" rx="12.5" ry="12.5" style="stroke:#181818;stroke-width:0.5;" width="166.2969" x="424.8295" y="2079.0117"/><text fill="#000000" font-family="sans-serif" font-size="12" lengthAdjust="spacing" textLength="146.2969" x="434.8295" y="2100.1504">Handle existing function</text><rect fill="#F1F1F1" height="33.9688" rx="12.5" ry="12.5" style="stroke:#181818;stroke-width:0.5;" width="183.6992" x="611.1263" y="2079.0117"/><text fill="#000000" font-family="sans-serif" font-size="12" lengthAdjust="spacing" textLength="163.6992" x="621.1263" y="2100.1504">Add function 'cdd' to .zshrc</text><polygon fill="#F1F1F1" points="605.4769,2118.9805,617.4769,2130.9805,605.4769,2142.9805,593.4769,2130.9805,605.4769,2118.9805" style="stroke:#181818;stroke-width:0.5;"/><rect fill="#F1F1F1" height="33.9688" rx="12.5" ry="12.5" style="stroke:#181818;stroke-width:0.5;" width="277.1211" x="466.9164" y="2162.9805"/><text fill="#000000" font-family="sans-serif" font-size="12" lengthAdjust="spacing" textLength="257.1211" x="476.9164" y="2184.1191">Add aliases to .zshrc if not already present</text><rect fill="#F1F1F1" height="33.9688" rx="12.5" ry="12.5" style="stroke:#181818;stroke-width:0.5;" width="150.1367" x="530.4086" y="2216.9492"/><text fill="#000000" font-family="sans-serif" font-size="12" lengthAdjust="spacing" textLength="130.1367" x="540.4086" y="2238.0879">Start new zsh session</text><ellipse cx="605.4769" cy="2281.918" fill="none" rx="11" ry="11" style="stroke:#222222;stroke-width:1.0;"/><ellipse cx="605.4769" cy="2281.918" fill="#222222" rx="6" ry="6" style="stroke:#222222;stroke-width:1.0;"/><line style="stroke:#181818;stroke-width:1.0;" x1="605.4769" x2="605.4769" y1="67.2969" y2="87.2969"/><polygon fill="#181818" points="601.4769,77.2969,605.4769,87.2969,609.4769,77.2969,605.4769,81.2969" style="stroke:#181818;stroke-width:1.0;"/><line style="stroke:#181818;stroke-width:1.0;" x1="372.5468" x2="350.8063" y1="241.2344" y2="241.2344"/><line style="stroke:#181818;stroke-width:1.0;" x1="350.8063" x2="350.8063" y1="241.2344" y2="263.2344"/><polygon fill="#181818" points="346.8063,253.2344,350.8063,263.2344,354.8063,253.2344,350.8063,257.2344" style="stroke:#181818;stroke-width:1.0;"/><line style="stroke:#181818;stroke-width:1.0;" x1="517.4984" x2="539.2389" y1="241.2344" y2="241.2344"/><line style="stroke:#181818;stroke-width:1.0;" x1="539.2389" x2="539.2389" y1="241.2344" y2="263.2344"/><polygon fill="#181818" points="535.2389,253.2344,539.2389,263.2344,543.2389,253.2344,539.2389,257.2344" style="stroke:#181818;stroke-width:1.0;"/><line style="stroke:#181818;stroke-width:1.0;" x1="350.8063" x2="350.8063" y1="297.2031" y2="315.2031"/><line style="stroke:#181818;stroke-width:1.0;" x1="350.8063" x2="433.0226" y1="315.2031" y2="315.2031"/><polygon fill="#181818" points="423.0226,311.2031,433.0226,315.2031,423.0226,319.2031,427.0226,315.2031" style="stroke:#181818;stroke-width:1.0;"/><line style="stroke:#181818;stroke-width:1.0;" x1="539.2389" x2="539.2389" y1="297.2031" y2="315.2031"/><line style="stroke:#181818;stroke-width:1.0;" x1="539.2389" x2="457.0226" y1="315.2031" y2="315.2031"/><polygon fill="#181818" points="467.0226,311.2031,457.0226,315.2031,467.0226,319.2031,463.0226,315.2031" style="stroke:#181818;stroke-width:1.0;"/><line style="stroke:#181818;stroke-width:1.0;" x1="445.0226" x2="445.0226" y1="209.2344" y2="229.2344"/><polygon fill="#181818" points="441.0226,219.2344,445.0226,229.2344,449.0226,219.2344,445.0226,223.2344" style="stroke:#181818;stroke-width:1.0;"/><line style="stroke:#181818;stroke-width:1.0;" x1="500.028" x2="445.0226" y1="153.2656" y2="153.2656"/><line style="stroke:#181818;stroke-width:1.0;" x1="445.0226" x2="445.0226" y1="153.2656" y2="175.2656"/><polygon fill="#181818" points="441.0226,165.2656,445.0226,175.2656,449.0226,165.2656,445.0226,169.2656" style="stroke:#181818;stroke-width:1.0;"/><line style="stroke:#181818;stroke-width:1.0;" x1="710.9259" x2="765.9313" y1="153.2656" y2="153.2656"/><line style="stroke:#181818;stroke-width:1.0;" x1="765.9313" x2="765.9313" y1="153.2656" y2="175.2656"/><polygon fill="#181818" points="761.9313,165.2656,765.9313,175.2656,769.9313,165.2656,765.9313,169.2656" style="stroke:#181818;stroke-width:1.0;"/><line style="stroke:#181818;stroke-width:1.0;" x1="445.0226" x2="445.0226" y1="327.2031" y2="345.2031"/><line style="stroke:#181818;stroke-width:1.0;" x1="445.0226" x2="593.4769" y1="345.2031" y2="345.2031"/><polygon fill="#181818" points="583.4769,341.2031,593.4769,345.2031,583.4769,349.2031,587.4769,345.2031" style="stroke:#181818;stroke-width:1.0;"/><line style="stroke:#181818;stroke-width:1.0;" x1="765.9313" x2="765.9313" y1="209.2344" y2="345.2031"/><line style="stroke:#181818;stroke-width:1.0;" x1="765.9313" x2="617.4769" y1="345.2031" y2="345.2031"/><polygon fill="#181818" points="627.4769,341.2031,617.4769,345.2031,627.4769,349.2031,623.4769,345.2031" style="stroke:#181818;stroke-width:1.0;"/><line style="stroke:#181818;stroke-width:1.0;" x1="605.4769" x2="605.4769" y1="121.2656" y2="141.2656"/><polygon fill="#181818" points="601.4769,131.2656,605.4769,141.2656,609.4769,131.2656,605.4769,135.2656" style="stroke:#181818;stroke-width:1.0;"/><line style="stroke:#181818;stroke-width:1.0;" x1="605.4769" x2="605.4769" y1="357.2031" y2="377.2031"/><polygon fill="#181818" points="601.4769,367.2031,605.4769,377.2031,609.4769,367.2031,605.4769,371.2031" style="stroke:#181818;stroke-width:1.0;"/><line style="stroke:#181818;stroke-width:1.0;" x1="678.4508" x2="611.546" y1="565.1406" y2="565.1406"/><line style="stroke:#181818;stroke-width:1.0;" x1="611.546" x2="611.546" y1="565.1406" y2="587.1406"/><polygon fill="#181818" points="607.546,577.1406,611.546,587.1406,615.546,577.1406,611.546,581.1406" style="stroke:#181818;stroke-width:1.0;"/><line style="stroke:#181818;stroke-width:1.0;" x1="760.4049" x2="827.3097" y1="565.1406" y2="565.1406"/><line style="stroke:#181818;stroke-width:1.0;" x1="827.3097" x2="827.3097" y1="565.1406" y2="587.1406"/><polygon fill="#181818" points="823.3097,577.1406,827.3097,587.1406,831.3097,577.1406,827.3097,581.1406" style="stroke:#181818;stroke-width:1.0;"/><line style="stroke:#181818;stroke-width:1.0;" x1="611.546" x2="611.546" y1="621.1094" y2="639.1094"/><line style="stroke:#181818;stroke-width:1.0;" x1="611.546" x2="707.4279" y1="639.1094" y2="639.1094"/><polygon fill="#181818" points="697.4279,635.1094,707.4279,639.1094,697.4279,643.1094,701.4279,639.1094" style="stroke:#181818;stroke-width:1.0;"/><line style="stroke:#181818;stroke-width:1.0;" x1="827.3097" x2="827.3097" y1="621.1094" y2="639.1094"/><line style="stroke:#181818;stroke-width:1.0;" x1="827.3097" x2="731.4279" y1="639.1094" y2="639.1094"/><polygon fill="#181818" points="741.4279,635.1094,731.4279,639.1094,741.4279,643.1094,737.4279,639.1094" style="stroke:#181818;stroke-width:1.0;"/><line style="stroke:#181818;stroke-width:1.0;" x1="719.4279" x2="719.4279" y1="533.1406" y2="553.1406"/><polygon fill="#181818" points="715.4279,543.1406,719.4279,553.1406,723.4279,543.1406,719.4279,547.1406" style="stroke:#181818;stroke-width:1.0;"/><line style="stroke:#181818;stroke-width:1.0;" x1="1036.2511" x2="1036.2511" y1="533.1406" y2="553.1406"/><polygon fill="#181818" points="1032.2511,543.1406,1036.2511,553.1406,1040.2511,543.1406,1036.2511,547.1406" style="stroke:#181818;stroke-width:1.0;"/><line style="stroke:#181818;stroke-width:1.0;" x1="832.391" x2="719.4279" y1="477.1719" y2="477.1719"/><line style="stroke:#181818;stroke-width:1.0;" x1="719.4279" x2="719.4279" y1="477.1719" y2="499.1719"/><polygon fill="#181818" points="715.4279,489.1719,719.4279,499.1719,723.4279,489.1719,719.4279,493.1719" style="stroke:#181818;stroke-width:1.0;"/><line style="stroke:#181818;stroke-width:1.0;" x1="923.288" x2="1036.2511" y1="477.1719" y2="477.1719"/><line style="stroke:#181818;stroke-width:1.0;" x1="1036.2511" x2="1036.2511" y1="477.1719" y2="499.1719"/><polygon fill="#181818" points="1032.2511,489.1719,1036.2511,499.1719,1040.2511,489.1719,1036.2511,493.1719" style="stroke:#181818;stroke-width:1.0;"/><line style="stroke:#181818;stroke-width:1.0;" x1="719.4279" x2="719.4279" y1="651.1094" y2="673.1094"/><line style="stroke:#181818;stroke-width:1.0;" x1="719.4279" x2="617.4769" y1="673.1094" y2="673.1094"/><polygon fill="#181818" points="627.4769,669.1094,617.4769,673.1094,627.4769,677.1094,623.4769,673.1094" style="stroke:#181818;stroke-width:1.0;"/><line style="stroke:#181818;stroke-width:1.0;" x1="555.275" x2="333.1144" y1="443.1719" y2="443.1719"/><line style="stroke:#181818;stroke-width:1.0;" x1="333.1144" x2="333.1144" y1="443.1719" y2="465.1719"/><polygon fill="#181818" points="329.1144,455.1719,333.1144,465.1719,337.1144,455.1719,333.1144,459.1719" style="stroke:#181818;stroke-width:1.0;"/><line style="stroke:#181818;stroke-width:1.0;" x1="655.6788" x2="877.8395" y1="443.1719" y2="443.1719"/><line style="stroke:#181818;stroke-width:1.0;" x1="877.8395" x2="877.8395" y1="443.1719" y2="465.1719"/><polygon fill="#181818" points="873.8395,455.1719,877.8395,465.1719,881.8395,455.1719,877.8395,459.1719" style="stroke:#181818;stroke-width:1.0;"/><line style="stroke:#181818;stroke-width:1.0;" x1="333.1144" x2="333.1144" y1="499.1406" y2="673.1094"/><line style="stroke:#181818;stroke-width:1.0;" x1="333.1144" x2="593.4769" y1="673.1094" y2="673.1094"/><polygon fill="#181818" points="583.4769,669.1094,593.4769,673.1094,583.4769,677.1094,587.4769,673.1094" style="stroke:#181818;stroke-width:1.0;"/><line style="stroke:#181818;stroke-width:1.0;" x1="605.4769" x2="605.4769" y1="411.1719" y2="431.1719"/><polygon fill="#181818" points="601.4769,421.1719,605.4769,431.1719,609.4769,421.1719,605.4769,425.1719" style="stroke:#181818;stroke-width:1.0;"/><line style="stroke:#181818;stroke-width:1.0;" x1="605.4769" x2="605.4769" y1="685.1094" y2="705.1094"/><polygon fill="#181818" points="601.4769,695.1094,605.4769,705.1094,609.4769,695.1094,605.4769,699.1094" style="stroke:#181818;stroke-width:1.0;"/><line style="stroke:#181818;stroke-width:1.0;" x1="605.4769" x2="605.4769" y1="739.0781" y2="759.0781"/><polygon fill="#181818" points="601.4769,749.0781,605.4769,759.0781,609.4769,749.0781,605.4769,753.0781" style="stroke:#181818;stroke-width:1.0;"/><line style="stroke:#181818;stroke-width:1.0;" x1="605.4769" x2="605.4769" y1="837.0469" y2="861.4492"/><polygon fill="#181818" points="601.4769,851.4492,605.4769,861.4492,609.4769,851.4492,605.4769,855.4492" style="stroke:#181818;stroke-width:1.0;"/><line style="stroke:#181818;stroke-width:1.0;" x1="650.9254" x2="780.0238" y1="825.0469" y2="825.0469"/><polygon fill="#181818" points="776.0238,868.4336,780.0238,878.4336,784.0238,868.4336,780.0238,872.4336" style="stroke:#181818;stroke-width:1.0;"/><line style="stroke:#181818;stroke-width:1.0;" x1="780.0238" x2="780.0238" y1="825.0469" y2="927.418"/><line style="stroke:#181818;stroke-width:1.0;" x1="780.0238" x2="617.4769" y1="927.418" y2="927.418"/><polygon fill="#181818" points="627.4769,923.418,617.4769,927.418,627.4769,931.418,623.4769,927.418" style="stroke:#181818;stroke-width:1.0;"/><line style="stroke:#181818;stroke-width:1.0;" x1="605.4769" x2="605.4769" y1="895.418" y2="915.418"/><polygon fill="#181818" points="601.4769,905.418,605.4769,915.418,609.4769,905.418,605.4769,909.418" style="stroke:#181818;stroke-width:1.0;"/><line style="stroke:#181818;stroke-width:1.0;" x1="605.4769" x2="605.4769" y1="793.0469" y2="813.0469"/><polygon fill="#181818" points="601.4769,803.0469,605.4769,813.0469,609.4769,803.0469,605.4769,807.0469" style="stroke:#181818;stroke-width:1.0;"/><line style="stroke:#181818;stroke-width:1.0;" x1="605.4769" x2="605.4769" y1="939.418" y2="959.418"/><polygon fill="#181818" points="601.4769,949.418,605.4769,959.418,609.4769,949.418,605.4769,953.418" style="stroke:#181818;stroke-width:1.0;"/><line style="stroke:#181818;stroke-width:1.0;" x1="308.4373" x2="308.4373" y1="1081.3555" y2="1101.3555"/><polygon fill="#181818" points="304.4373,1091.3555,308.4373,1101.3555,312.4373,1091.3555,308.4373,1095.3555" style="stroke:#181818;stroke-width:1.0;"/><line style="stroke:#181818;stroke-width:1.0;" x1="623.3848" x2="623.3848" y1="1257.293" y2="1277.293"/><polygon fill="#181818" points="619.3848,1267.293,623.3848,1277.293,627.3848,1267.293,623.3848,1271.293" style="stroke:#181818;stroke-width:1.0;"/><line style="stroke:#181818;stroke-width:1.0;" x1="623.3848" x2="623.3848" y1="1311.2617" y2="1331.2617"/><polygon fill="#181818" points="619.3848,1321.2617,623.3848,1331.2617,627.3848,1321.2617,623.3848,1325.2617" style="stroke:#181818;stroke-width:1.0;"/><line style="stroke:#181818;stroke-width:1.0;" x1="442.7302" x2="361.4053" y1="1201.3242" y2="1201.3242"/><line style="stroke:#181818;stroke-width:1.0;" x1="361.4053" x2="361.4053" y1="1201.3242" y2="1223.3242"/><polygon fill="#181818" points="357.4053,1213.3242,361.4053,1223.3242,365.4053,1213.3242,361.4053,1217.3242" style="stroke:#181818;stroke-width:1.0;"/><line style="stroke:#181818;stroke-width:1.0;" x1="542.0598" x2="623.3848" y1="1201.3242" y2="1201.3242"/><line style="stroke:#181818;stroke-width:1.0;" x1="623.3848" x2="623.3848" y1="1201.3242" y2="1223.3242"/><polygon fill="#181818" points="619.3848,1213.3242,623.3848,1223.3242,627.3848,1213.3242,623.3848,1217.3242" style="stroke:#181818;stroke-width:1.0;"/><line style="stroke:#181818;stroke-width:1.0;" x1="361.4053" x2="361.4053" y1="1257.293" y2="1383.2305"/><line style="stroke:#181818;stroke-width:1.0;" x1="361.4053" x2="480.395" y1="1383.2305" y2="1383.2305"/><polygon fill="#181818" points="470.395,1379.2305,480.395,1383.2305,470.395,1387.2305,474.395,1383.2305" style="stroke:#181818;stroke-width:1.0;"/><line style="stroke:#181818;stroke-width:1.0;" x1="623.3848" x2="623.3848" y1="1365.2305" y2="1383.2305"/><line style="stroke:#181818;stroke-width:1.0;" x1="623.3848" x2="504.395" y1="1383.2305" y2="1383.2305"/><polygon fill="#181818" points="514.395,1379.2305,504.395,1383.2305,514.395,1387.2305,510.395,1383.2305" style="stroke:#181818;stroke-width:1.0;"/><line style="stroke:#181818;stroke-width:1.0;" x1="258.2354" x2="124.4795" y1="1167.3242" y2="1167.3242"/><line style="stroke:#181818;stroke-width:1.0;" x1="124.4795" x2="124.4795" y1="1167.3242" y2="1189.3242"/><polygon fill="#181818" points="120.4795,1179.3242,124.4795,1189.3242,128.4795,1179.3242,124.4795,1183.3242" style="stroke:#181818;stroke-width:1.0;"/><line style="stroke:#181818;stroke-width:1.0;" x1="358.6392" x2="492.395" y1="1167.3242" y2="1167.3242"/><line style="stroke:#181818;stroke-width:1.0;" x1="492.395" x2="492.395" y1="1167.3242" y2="1189.3242"/><polygon fill="#181818" points="488.395,1179.3242,492.395,1189.3242,496.395,1179.3242,492.395,1183.3242" style="stroke:#181818;stroke-width:1.0;"/><line style="stroke:#181818;stroke-width:1.0;" x1="124.4795" x2="124.4795" y1="1223.293" y2="1413.2305"/><line style="stroke:#181818;stroke-width:1.0;" x1="124.4795" x2="296.4373" y1="1413.2305" y2="1413.2305"/><polygon fill="#181818" points="286.4373,1409.2305,296.4373,1413.2305,286.4373,1417.2305,290.4373,1413.2305" style="stroke:#181818;stroke-width:1.0;"/><line style="stroke:#181818;stroke-width:1.0;" x1="492.395" x2="492.395" y1="1395.2305" y2="1413.2305"/><line style="stroke:#181818;stroke-width:1.0;" x1="492.395" x2="320.4373" y1="1413.2305" y2="1413.2305"/><polygon fill="#181818" points="330.4373,1409.2305,320.4373,1413.2305,330.4373,1417.2305,326.4373,1413.2305" style="stroke:#181818;stroke-width:1.0;"/><line style="stroke:#181818;stroke-width:1.0;" x1="308.4373" x2="308.4373" y1="1135.3242" y2="1155.3242"/><polygon fill="#181818" points="304.4373,1145.3242,308.4373,1155.3242,312.4373,1145.3242,308.4373,1149.3242" style="stroke:#181818;stroke-width:1.0;"/><line style="stroke:#181818;stroke-width:1.0;" x1="432.653" x2="308.4373" y1="1025.3867" y2="1025.3867"/><line style="stroke:#181818;stroke-width:1.0;" x1="308.4373" x2="308.4373" y1="1025.3867" y2="1047.3867"/><polygon fill="#181818" points="304.4373,1037.3867,308.4373,1047.3867,312.4373,1037.3867,308.4373,1041.3867" style="stroke:#181818;stroke-width:1.0;"/><line style="stroke:#181818;stroke-width:1.0;" x1="778.3009" x2="902.5166" y1="1025.3867" y2="1025.3867"/><line style="stroke:#181818;stroke-width:1.0;" x1="902.5166" x2="902.5166" y1="1025.3867" y2="1047.3867"/><polygon fill="#181818" points="898.5166,1037.3867,902.5166,1047.3867,906.5166,1037.3867,902.5166,1041.3867" style="stroke:#181818;stroke-width:1.0;"/><line style="stroke:#181818;stroke-width:1.0;" x1="308.4373" x2="308.4373" y1="1425.2305" y2="1443.2305"/><line style="stroke:#181818;stroke-width:1.0;" x1="308.4373" x2="593.4769" y1="1443.2305" y2="1443.2305"/><polygon fill="#181818" points="583.4769,1439.2305,593.4769,1443.2305,583.4769,1447.2305,587.4769,1443.2305" style="stroke:#181818;stroke-width:1.0;"/><line style="stroke:#181818;stroke-width:1.0;" x1="902.5166" x2="902.5166" y1="1081.3555" y2="1443.2305"/><line style="stroke:#181818;stroke-width:1.0;" x1="902.5166" x2="617.4769" y1="1443.2305" y2="1443.2305"/><polygon fill="#181818" points="627.4769,1439.2305,617.4769,1443.2305,627.4769,1447.2305,623.4769,1443.2305" style="stroke:#181818;stroke-width:1.0;"/><line style="stroke:#181818;stroke-width:1.0;" x1="605.4769" x2="605.4769" y1="993.3867" y2="1013.3867"/><polygon fill="#181818" points="601.4769,1003.3867,605.4769,1013.3867,609.4769,1003.3867,605.4769,1007.3867" style="stroke:#181818;stroke-width:1.0;"/><line style="stroke:#181818;stroke-width:1.0;" x1="605.4769" x2="605.4769" y1="1455.2305" y2="1475.2305"/><polygon fill="#181818" points="601.4769,1465.2305,605.4769,1475.2305,609.4769,1465.2305,605.4769,1469.2305" style="stroke:#181818;stroke-width:1.0;"/><line style="stroke:#181818;stroke-width:1.0;" x1="556.4835" x2="520.3983" y1="1541.1992" y2="1541.1992"/><line style="stroke:#181818;stroke-width:1.0;" x1="520.3983" x2="520.3983" y1="1541.1992" y2="1563.1992"/><polygon fill="#181818" points="516.3983,1553.1992,520.3983,1563.1992,524.3983,1553.1992,520.3983,1557.1992" style="stroke:#181818;stroke-width:1.0;"/><line style="stroke:#181818;stroke-width:1.0;" x1="654.4703" x2="690.5555" y1="1541.1992" y2="1541.1992"/><line style="stroke:#181818;stroke-width:1.0;" x1="690.5555" x2="690.5555" y1="1541.1992" y2="1563.1992"/><polygon fill="#181818" points="686.5555,1553.1992,690.5555,1563.1992,694.5555,1553.1992,690.5555,1557.1992" style="stroke:#181818;stroke-width:1.0;"/><line style="stroke:#181818;stroke-width:1.0;" x1="520.3983" x2="520.3983" y1="1597.168" y2="1615.168"/><line style="stroke:#181818;stroke-width:1.0;" x1="520.3983" x2="593.4769" y1="1615.168" y2="1615.168"/><polygon fill="#181818" points="583.4769,1611.168,593.4769,1615.168,583.4769,1619.168,587.4769,1615.168" style="stroke:#181818;stroke-width:1.0;"/><line style="stroke:#181818;stroke-width:1.0;" x1="690.5555" x2="690.5555" y1="1597.168" y2="1615.168"/><line style="stroke:#181818;stroke-width:1.0;" x1="690.5555" x2="617.4769" y1="1615.168" y2="1615.168"/><polygon fill="#181818" points="627.4769,1611.168,617.4769,1615.168,627.4769,1619.168,623.4769,1615.168" style="stroke:#181818;stroke-width:1.0;"/><line style="stroke:#181818;stroke-width:1.0;" x1="605.4769" x2="605.4769" y1="1509.1992" y2="1529.1992"/><polygon fill="#181818" points="601.4769,1519.1992,605.4769,1529.1992,609.4769,1519.1992,605.4769,1523.1992" style="stroke:#181818;stroke-width:1.0;"/><line style="stroke:#181818;stroke-width:1.0;" x1="605.4769" x2="605.4769" y1="1627.168" y2="1647.168"/><polygon fill="#181818" points="601.4769,1637.168,605.4769,1647.168,609.4769,1637.168,605.4769,1641.168" style="stroke:#181818;stroke-width:1.0;"/><line style="stroke:#181818;stroke-width:1.0;" x1="344.2286" x2="334.2286" y1="1801.1055" y2="1801.1055"/><line style="stroke:#181818;stroke-width:1.0;" x1="334.2286" x2="334.2286" y1="1801.1055" y2="1823.1055"/><polygon fill="#181818" points="330.2286,1813.1055,334.2286,1823.1055,338.2286,1813.1055,334.2286,1817.1055" style="stroke:#181818;stroke-width:1.0;"/><line style="stroke:#181818;stroke-width:1.0;" x1="531.5206" x2="541.5206" y1="1801.1055" y2="1801.1055"/><line style="stroke:#181818;stroke-width:1.0;" x1="541.5206" x2="541.5206" y1="1801.1055" y2="1823.1055"/><polygon fill="#181818" points="537.5206,1813.1055,541.5206,1823.1055,545.5206,1813.1055,541.5206,1817.1055" style="stroke:#181818;stroke-width:1.0;"/><line style="stroke:#181818;stroke-width:1.0;" x1="334.2286" x2="334.2286" y1="1857.0742" y2="1875.0742"/><line style="stroke:#181818;stroke-width:1.0;" x1="334.2286" x2="425.8746" y1="1875.0742" y2="1875.0742"/><polygon fill="#181818" points="415.8746,1871.0742,425.8746,1875.0742,415.8746,1879.0742,419.8746,1875.0742" style="stroke:#181818;stroke-width:1.0;"/><line style="stroke:#181818;stroke-width:1.0;" x1="541.5206" x2="541.5206" y1="1857.0742" y2="1875.0742"/><line style="stroke:#181818;stroke-width:1.0;" x1="541.5206" x2="449.8746" y1="1875.0742" y2="1875.0742"/><polygon fill="#181818" points="459.8746,1871.0742,449.8746,1875.0742,459.8746,1879.0742,455.8746,1875.0742" style="stroke:#181818;stroke-width:1.0;"/><line style="stroke:#181818;stroke-width:1.0;" x1="437.8746" x2="437.8746" y1="1769.1055" y2="1789.1055"/><polygon fill="#181818" points="433.8746,1779.1055,437.8746,1789.1055,441.8746,1779.1055,437.8746,1783.1055" style="stroke:#181818;stroke-width:1.0;"/><line style="stroke:#181818;stroke-width:1.0;" x1="494.2567" x2="437.8746" y1="1713.1367" y2="1713.1367"/><line style="stroke:#181818;stroke-width:1.0;" x1="437.8746" x2="437.8746" y1="1713.1367" y2="1735.1367"/><polygon fill="#181818" points="433.8746,1725.1367,437.8746,1735.1367,441.8746,1725.1367,437.8746,1729.1367" style="stroke:#181818;stroke-width:1.0;"/><line style="stroke:#181818;stroke-width:1.0;" x1="716.6971" x2="773.0792" y1="1713.1367" y2="1713.1367"/><line style="stroke:#181818;stroke-width:1.0;" x1="773.0792" x2="773.0792" y1="1713.1367" y2="1735.1367"/><polygon fill="#181818" points="769.0792,1725.1367,773.0792,1735.1367,777.0792,1725.1367,773.0792,1729.1367" style="stroke:#181818;stroke-width:1.0;"/><line style="stroke:#181818;stroke-width:1.0;" x1="437.8746" x2="437.8746" y1="1887.0742" y2="1905.0742"/><line style="stroke:#181818;stroke-width:1.0;" x1="437.8746" x2="593.4769" y1="1905.0742" y2="1905.0742"/><polygon fill="#181818" points="583.4769,1901.0742,593.4769,1905.0742,583.4769,1909.0742,587.4769,1905.0742" style="stroke:#181818;stroke-width:1.0;"/><line style="stroke:#181818;stroke-width:1.0;" x1="773.0792" x2="773.0792" y1="1769.1055" y2="1905.0742"/><line style="stroke:#181818;stroke-width:1.0;" x1="773.0792" x2="617.4769" y1="1905.0742" y2="1905.0742"/><polygon fill="#181818" points="627.4769,1901.0742,617.4769,1905.0742,627.4769,1909.0742,623.4769,1905.0742" style="stroke:#181818;stroke-width:1.0;"/><line style="stroke:#181818;stroke-width:1.0;" x1="605.4769" x2="605.4769" y1="1681.1367" y2="1701.1367"/><polygon fill="#181818" points="601.4769,1691.1367,605.4769,1701.1367,609.4769,1691.1367,605.4769,1695.1367" style="stroke:#181818;stroke-width:1.0;"/><line style="stroke:#181818;stroke-width:1.0;" x1="605.4769" x2="605.4769" y1="1917.0742" y2="1937.0742"/><polygon fill="#181818" points="601.4769,1927.0742,605.4769,1937.0742,609.4769,1927.0742,605.4769,1931.0742" style="stroke:#181818;stroke-width:1.0;"/><line style="stroke:#181818;stroke-width:1.0;" x1="605.4769" x2="605.4769" y1="1971.043" y2="1991.043"/><polygon fill="#181818" points="601.4769,1981.043,605.4769,1991.043,609.4769,1981.043,605.4769,1985.043" style="stroke:#181818;stroke-width:1.0;"/><line style="stroke:#181818;stroke-width:1.0;" x1="529.3085" x2="507.9779" y1="2057.0117" y2="2057.0117"/><line style="stroke:#181818;stroke-width:1.0;" x1="507.9779" x2="507.9779" y1="2057.0117" y2="2079.0117"/><polygon fill="#181818" points="503.9779,2069.0117,507.9779,2079.0117,511.9779,2069.0117,507.9779,2073.0117" style="stroke:#181818;stroke-width:1.0;"/><line style="stroke:#181818;stroke-width:1.0;" x1="681.6454" x2="702.976" y1="2057.0117" y2="2057.0117"/><line style="stroke:#181818;stroke-width:1.0;" x1="702.976" x2="702.976" y1="2057.0117" y2="2079.0117"/><polygon fill="#181818" points="698.976,2069.0117,702.976,2079.0117,706.976,2069.0117,702.976,2073.0117" style="stroke:#181818;stroke-width:1.0;"/><line style="stroke:#181818;stroke-width:1.0;" x1="507.9779" x2="507.9779" y1="2112.9805" y2="2130.9805"/><line style="stroke:#181818;stroke-width:1.0;" x1="507.9779" x2="593.4769" y1="2130.9805" y2="2130.9805"/><polygon fill="#181818" points="583.4769,2126.9805,593.4769,2130.9805,583.4769,2134.9805,587.4769,2130.9805" style="stroke:#181818;stroke-width:1.0;"/><line style="stroke:#181818;stroke-width:1.0;" x1="702.976" x2="702.976" y1="2112.9805" y2="2130.9805"/><line style="stroke:#181818;stroke-width:1.0;" x1="702.976" x2="617.4769" y1="2130.9805" y2="2130.9805"/><polygon fill="#181818" points="627.4769,2126.9805,617.4769,2130.9805,627.4769,2134.9805,623.4769,2130.9805" style="stroke:#181818;stroke-width:1.0;"/><line style="stroke:#181818;stroke-width:1.0;" x1="605.4769" x2="605.4769" y1="2025.0117" y2="2045.0117"/><polygon fill="#181818" points="601.4769,2035.0117,605.4769,2045.0117,609.4769,2035.0117,605.4769,2039.0117" style="stroke:#181818;stroke-width:1.0;"/><line style="stroke:#181818;stroke-width:1.0;" x1="605.4769" x2="605.4769" y1="2142.9805" y2="2162.9805"/><polygon fill="#181818" points="601.4769,2152.9805,605.4769,2162.9805,609.4769,2152.9805,605.4769,2156.9805" style="stroke:#181818;stroke-width:1.0;"/><line style="stroke:#181818;stroke-width:1.0;" x1="605.4769" x2="605.4769" y1="2196.9492" y2="2216.9492"/><polygon fill="#181818" points="601.4769,2206.9492,605.4769,2216.9492,609.4769,2206.9492,605.4769,2210.9492" style="stroke:#181818;stroke-width:1.0;"/><line style="stroke:#181818;stroke-width:1.0;" x1="605.4769" x2="605.4769" y1="2250.918" y2="2270.918"/><polygon fill="#181818" points="601.4769,2260.918,605.4769,2270.918,609.4769,2260.918,605.4769,2264.918" style="stroke:#181818;stroke-width:1.0;"/><!--SRC=[ZLPDRzim3BtxL_0m8CaXxTt6C0HfYmvOcw5UUrSbEXPYIu8aeyr-_IX_9x7JzP2W4lb8FZvIyT8N29QfFTerrogJ-xLKphEYO5vgjNRSIkCXYkZC-YYAD-u0bKCBCWEVun4-cFBWDRHkeFDrULmRxV8a8flbQp0EHcxQwiSgu2XO7j6j8g2_U9iZFuG0hNLjT-Dom4_fl4jggu0zVN-9MAE-LEeSi472mY4ibHxPFZ8bY9XIEYVLViPD2Pb5fyvnUf1cL1oCoKoYnYMAxz2ZBQN2a2ZiqeQfNGhIGSduBfqW9KKFXl43srDUJD6N3OG-wXBVBNx0CdokahE41jnVKbMVCzJqX9y783-XCj0McF59xz3qDJ13jzEOrtA-UtuOi2xPl-Qw-Vrdv5hJURs5bNALCTfw53NHtRtpsepRs7RcYHqG6j6xsnmBWxOH5lBAi_S2aoXETMNvX5KIHL_I7R-WAHZlPWwuBgawuU13-hnnMZk3N6QIWrRe1j7qJNgJhc85fBuIKiDM2ogTq-Sgz8d-bLKPCcYbXw9HrpDI18euxwsctIUAU3M2UUpxKz3KDSp6Fzlv5cWeRrHSucXUhohynFyjRJEfQfbrAfyRs07y0OMsx8ecPoByZoOtGWnk5cd0fTVs20TQWzH4SBKmt8YFtdM2CM1x9bLoFRj9iSykdZwvwRNJA-ZRu-xf_lRchyijxvTguF3aQABnxL3Lzu6rnlvywSHRYw7QSPWXYtkQI8kaV6kHUmZQWzlm5H9dXMGkzD5OT4WlYrHza93WX3vhwciKEbNQppueMLXZ3Vu0sgbdKryi0ixt9fT5byECLC-vgA5dNvIW7JOHWtRQE9Nvtcx7134XvFcJaeNtPC65M41MAHwkwvBRJLCmEgGTDIAZDpiZ-Q4xRz1cQRYWe0Ey44IeFZj57HNUrT1pX6wu3jsXhj85YKeSksnesSPf-4q2YXu_iWJoSdNiAEpsVm00]--></g></svg>