<svg xmlns="http://www.w3.org/2000/svg" xmlns:xlink="http://www.w3.org/1999/xlink" contentStyleType="text/css" height="1898px" preserveAspectRatio="none" style="width:1494px;height:1898px;background:#2E2E2E;" version="1.1" viewBox="0 0 1494 1898" width="1494px" zoomAndPan="magnify"><defs/><g><rect fill="#2E2E2E" height="1898" style="stroke:none;stroke-width:1.0;" width="1494" x="0" y="0"/><text fill="#F0F0F0" font-family="sans-serif" font-size="14" font-weight="bold" lengthAdjust="spacing" textLength="253.374" x="618.8164" y="32.9951">ranger-config-installation-script</text><ellipse cx="780.9658" cy="57.2969" fill="#222222" rx="10" ry="10" style="stroke:#222222;stroke-width:1.0;"/><rect fill="#3A3A3A" height="33.9688" rx="12.5" ry="12.5" style="stroke:#555555;stroke-width:0.5;" width="276.4473" x="642.7422" y="87.2969"/><text fill="#F0F0F0" font-family="sans-serif" font-size="12" lengthAdjust="spacing" textLength="256.4473" x="652.7422" y="108.4355">Ask if the user wants to install oh-my-posh</text><rect fill="#3A3A3A" height="33.9688" rx="12.5" ry="12.5" style="stroke:#555555;stroke-width:0.5;" width="115.3613" x="723.2852" y="141.2656"/><text fill="#F0F0F0" font-family="sans-serif" font-size="12" lengthAdjust="spacing" textLength="95.3613" x="733.2852" y="162.4043">Read user input</text><polygon fill="#3A3A3A" points="715.5647,195.2344,846.3669,195.2344,858.3669,207.2344,846.3669,219.2344,715.5647,219.2344,703.5647,207.2344,715.5647,195.2344" style="stroke:#555555;stroke-width:0.5;"/><text fill="#F0F0F0" font-family="sans-serif" font-size="11" lengthAdjust="spacing" textLength="130.8022" x="715.5647" y="211.0425">Response is 'yes' or 'y'?</text><text fill="#F0F0F0" font-family="sans-serif" font-size="11" lengthAdjust="spacing" textLength="19.0083" x="684.5564" y="204.6401">yes</text><text fill="#F0F0F0" font-family="sans-serif" font-size="11" lengthAdjust="spacing" textLength="13.7017" x="858.3669" y="204.6401">no</text><polygon fill="#3A3A3A" points="436.7043,229.2344,658.552,229.2344,670.552,241.2344,658.552,253.2344,436.7043,253.2344,424.7043,241.2344,436.7043,229.2344" style="stroke:#555555;stroke-width:0.5;"/><text fill="#F0F0F0" font-family="sans-serif" font-size="11" lengthAdjust="spacing" textLength="221.8477" x="436.7043" y="245.0425">install-posh.sh exists and is executable?</text><text fill="#F0F0F0" font-family="sans-serif" font-size="11" lengthAdjust="spacing" textLength="19.0083" x="405.696" y="238.6401">yes</text><text fill="#F0F0F0" font-family="sans-serif" font-size="11" lengthAdjust="spacing" textLength="13.7017" x="670.552" y="238.6401">no</text><rect fill="#3A3A3A" height="33.9688" rx="12.5" ry="12.5" style="stroke:#555555;stroke-width:0.5;" width="185.6914" x="316.1638" y="263.2344"/><text fill="#F0F0F0" font-family="sans-serif" font-size="12" lengthAdjust="spacing" textLength="165.6914" x="326.1638" y="284.373">Run ./scripts/install-posh.sh</text><rect fill="#3A3A3A" height="33.9688" rx="12.5" ry="12.5" style="stroke:#555555;stroke-width:0.5;" width="328.7832" x="521.8552" y="263.2344"/><text fill="#FFD700" font-family="sans-serif" font-size="12" lengthAdjust="spacing" textLength="308.7832" x="531.8552" y="284.373">Notify "install-posh.sh not found or not executable"</text><polygon fill="#3A3A3A" points="547.6282,303.2031,559.6282,315.2031,547.6282,327.2031,535.6282,315.2031,547.6282,303.2031" style="stroke:#555555;stroke-width:0.5;"/><rect fill="#3A3A3A" height="33.9688" rx="12.5" ry="12.5" style="stroke:#555555;stroke-width:0.5;" width="267.3301" x="880.6384" y="229.2344"/><text fill="#00FF00" font-family="sans-serif" font-size="12" lengthAdjust="spacing" textLength="247.3301" x="890.6384" y="250.373">Notify "Skipping oh-my-posh installation"</text><polygon fill="#3A3A3A" points="780.9658,333.2031,792.9658,345.2031,780.9658,357.2031,768.9658,345.2031,780.9658,333.2031" style="stroke:#555555;stroke-width:0.5;"/><rect fill="#3A3A3A" height="33.9688" rx="12.5" ry="12.5" style="stroke:#555555;stroke-width:0.5;" width="182.8555" x="689.5381" y="377.2031"/><text fill="#F0F0F0" font-family="sans-serif" font-size="12" lengthAdjust="spacing" textLength="162.8555" x="699.5381" y="398.3418">Determine the OS (uname)</text><polygon fill="#3A3A3A" points="759.1108,431.1719,802.8208,431.1719,814.8208,443.1719,802.8208,455.1719,759.1108,455.1719,747.1108,443.1719,759.1108,431.1719" style="stroke:#555555;stroke-width:0.5;"/><text fill="#F0F0F0" font-family="sans-serif" font-size="11" lengthAdjust="spacing" textLength="43.71" x="759.1108" y="446.98">OS type</text><rect fill="#3A3A3A" height="33.9688" rx="12.5" ry="12.5" style="stroke:#555555;stroke-width:0.5;" width="327.1133" x="78.9248" y="490.7813"/><text fill="#F0F0F0" font-family="sans-serif" font-size="12" lengthAdjust="spacing" textLength="307.1133" x="88.9248" y="511.9199">Set update and install commands using Homebrew</text><polygon fill="#3A3A3A" points="521.3882,515.7813,617.7349,515.7813,629.7349,527.7813,617.7349,539.7813,521.3882,539.7813,509.3882,527.7813,521.3882,515.7813" style="stroke:#555555;stroke-width:0.5;"/><text fill="#F0F0F0" font-family="sans-serif" font-size="11" lengthAdjust="spacing" textLength="19.0083" x="573.5615" y="549.9917">yes</text><text fill="#F0F0F0" font-family="sans-serif" font-size="11" lengthAdjust="spacing" textLength="96.3467" x="521.3882" y="531.5894">Fedora detected?</text><rect fill="#3A3A3A" height="33.9688" rx="12.5" ry="12.5" style="stroke:#555555;stroke-width:0.5;" width="287.0469" x="426.0381" y="572.5859"/><text fill="#F0F0F0" font-family="sans-serif" font-size="12" lengthAdjust="spacing" textLength="267.0469" x="436.0381" y="593.7246">Set update and install commands using DNF</text><polygon fill="#3A3A3A" points="826.1675,515.7813,924.7056,515.7813,936.7056,527.7813,924.7056,539.7813,826.1675,539.7813,814.1675,527.7813,826.1675,515.7813" style="stroke:#555555;stroke-width:0.5;"/><text fill="#F0F0F0" font-family="sans-serif" font-size="11" lengthAdjust="spacing" textLength="19.0083" x="879.4365" y="549.9917">yes</text><text fill="#F0F0F0" font-family="sans-serif" font-size="11" lengthAdjust="spacing" textLength="98.5381" x="826.1675" y="531.5894">Ubuntu detected?</text><text fill="#F0F0F0" font-family="sans-serif" font-size="11" lengthAdjust="spacing" textLength="104.1401" x="936.7056" y="525.187">Unsupported Linux</text><rect fill="#3A3A3A" height="33.9688" rx="12.5" ry="12.5" style="stroke:#555555;stroke-width:0.5;" width="284.7031" x="733.085" y="572.5859"/><text fill="#F0F0F0" font-family="sans-serif" font-size="12" lengthAdjust="spacing" textLength="264.7031" x="743.085" y="593.7246">Set update and install commands using APT</text><rect fill="#3A3A3A" height="33.9688" rx="12.5" ry="12.5" style="stroke:#555555;stroke-width:0.5;" width="256.3438" x="1037.7881" y="554.9824"/><text fill="#FFD700" font-family="sans-serif" font-size="12" lengthAdjust="spacing" textLength="236.3438" x="1047.7881" y="576.1211">Notify "Unsupported Linux distribution"</text><ellipse cx="1165.96" cy="634.9512" fill="none" rx="11" ry="11" style="stroke:#222222;stroke-width:1.0;"/><ellipse cx="1165.96" cy="634.9512" fill="#222222" rx="6" ry="6" style="stroke:#222222;stroke-width:1.0;"/><rect fill="#3A3A3A" height="33.9688" rx="12.5" ry="12.5" style="stroke:#555555;stroke-width:0.5;" width="168.875" x="1314.1318" y="490.7813"/><text fill="#FFD700" font-family="sans-serif" font-size="12" lengthAdjust="spacing" textLength="148.875" x="1324.1318" y="511.9199">Notify "Unsupported OS"</text><ellipse cx="1398.5693" cy="570.75" fill="none" rx="11" ry="11" style="stroke:#222222;stroke-width:1.0;"/><ellipse cx="1398.5693" cy="570.75" fill="#222222" rx="6" ry="6" style="stroke:#222222;stroke-width:1.0;"/><polygon fill="#3A3A3A" points="780.9658,675.9512,780.9658,675.9512,792.9658,687.9512,780.9658,699.9512,780.9658,699.9512,768.9658,687.9512,780.9658,675.9512" style="stroke:#555555;stroke-width:0.5;"/><rect fill="#3A3A3A" height="33.9688" rx="12.5" ry="12.5" style="stroke:#555555;stroke-width:0.5;" width="305.6621" x="628.1348" y="719.9512"/><text fill="#F0F0F0" font-family="sans-serif" font-size="12" lengthAdjust="spacing" textLength="285.6621" x="638.1348" y="741.0898">Grant execution permission to scripts/helper.sh</text><rect fill="#3A3A3A" height="33.9688" rx="12.5" ry="12.5" style="stroke:#555555;stroke-width:0.5;" width="164.9551" x="698.4883" y="773.9199"/><text fill="#F0F0F0" font-family="sans-serif" font-size="12" lengthAdjust="spacing" textLength="144.9551" x="708.4883" y="795.0586">Source scripts/helper.sh</text><rect fill="#3A3A3A" height="33.9688" rx="12.5" ry="12.5" style="stroke:#555555;stroke-width:0.5;" width="311.5215" x="625.2051" y="827.8887"/><text fill="#F0F0F0" font-family="sans-serif" font-size="12" lengthAdjust="spacing" textLength="291.5215" x="635.2051" y="849.0273">Run package installation (ranger, fzf, atool, etc.)</text><rect fill="#3A3A3A" height="33.9688" rx="12.5" ry="12.5" style="stroke:#555555;stroke-width:0.5;" width="329.0938" x="616.4189" y="930.2598"/><text fill="#F0F0F0" font-family="sans-serif" font-size="12" lengthAdjust="spacing" textLength="309.0938" x="626.4189" y="951.3984">Replace ranger commands with Linux-specific ones</text><polygon fill="#3A3A3A" points="747.5173,881.8574,814.4143,881.8574,826.4143,893.8574,814.4143,905.8574,747.5173,905.8574,735.5173,893.8574,747.5173,881.8574" style="stroke:#555555;stroke-width:0.5;"/><text fill="#F0F0F0" font-family="sans-serif" font-size="11" lengthAdjust="spacing" textLength="19.0083" x="784.9658" y="916.0679">yes</text><text fill="#F0F0F0" font-family="sans-serif" font-size="11" lengthAdjust="spacing" textLength="66.897" x="747.5173" y="897.6655">OS is Linux?</text><polygon fill="#3A3A3A" points="780.9658,984.2285,792.9658,996.2285,780.9658,1008.2285,768.9658,996.2285,780.9658,984.2285" style="stroke:#555555;stroke-width:0.5;"/><rect fill="#3A3A3A" height="33.9688" rx="12.5" ry="12.5" style="stroke:#555555;stroke-width:0.5;" width="360.8809" x="600.5254" y="1028.2285"/><text fill="#F0F0F0" font-family="sans-serif" font-size="12" lengthAdjust="spacing" textLength="340.8809" x="610.5254" y="1049.3672">Check if Visual Studio Code (code) or Codium is installed</text><polygon fill="#3A3A3A" points="677.8167,1082.1973,884.115,1082.1973,896.115,1094.1973,884.115,1106.1973,677.8167,1106.1973,665.8167,1094.1973,677.8167,1082.1973" style="stroke:#555555;stroke-width:0.5;"/><text fill="#F0F0F0" font-family="sans-serif" font-size="11" lengthAdjust="spacing" textLength="206.2983" x="677.8167" y="1098.0054">Neither code nor Codium is installed?</text><text fill="#F0F0F0" font-family="sans-serif" font-size="11" lengthAdjust="spacing" textLength="19.0083" x="646.8083" y="1091.603">yes</text><text fill="#F0F0F0" font-family="sans-serif" font-size="11" lengthAdjust="spacing" textLength="13.7017" x="896.115" y="1091.603">no</text><rect fill="#3A3A3A" height="33.9688" rx="12.5" ry="12.5" style="stroke:#555555;stroke-width:0.5;" width="293.2988" x="294.7969" y="1116.1973"/><text fill="#F0F0F0" font-family="sans-serif" font-size="12" lengthAdjust="spacing" textLength="273.2988" x="304.7969" y="1137.3359">Update package list and install dependencies</text><polygon fill="#3A3A3A" points="86.2776,1170.166,162.6814,1170.166,174.6814,1182.166,162.6814,1194.166,86.2776,1194.166,74.2776,1182.166,86.2776,1170.166" style="stroke:#555555;stroke-width:0.5;"/><text fill="#F0F0F0" font-family="sans-serif" font-size="11" lengthAdjust="spacing" textLength="19.0083" x="128.4795" y="1204.3765">yes</text><text fill="#F0F0F0" font-family="sans-serif" font-size="11" lengthAdjust="spacing" textLength="76.4038" x="86.2776" y="1185.9741">OS is macOS?</text><rect fill="#3A3A3A" height="33.9688" rx="12.5" ry="12.5" style="stroke:#555555;stroke-width:0.5;" width="226.959" x="11" y="1226.9707"/><text fill="#F0F0F0" font-family="sans-serif" font-size="12" lengthAdjust="spacing" textLength="206.959" x="21" y="1248.1094">Install VSCodium using Homebrew</text><polygon fill="#3A3A3A" points="358.855,1170.166,455.2017,1170.166,467.2017,1182.166,455.2017,1194.166,358.855,1194.166,346.855,1182.166,358.855,1170.166" style="stroke:#555555;stroke-width:0.5;"/><text fill="#F0F0F0" font-family="sans-serif" font-size="11" lengthAdjust="spacing" textLength="19.0083" x="411.0283" y="1204.3765">yes</text><text fill="#F0F0F0" font-family="sans-serif" font-size="11" lengthAdjust="spacing" textLength="96.3467" x="358.855" y="1185.9741">Fedora detected?</text><text fill="#F0F0F0" font-family="sans-serif" font-size="11" lengthAdjust="spacing" textLength="134.6694" x="467.2017" y="1179.5718">Ubuntu or Debian-based</text><rect fill="#3A3A3A" height="33.9688" rx="12.5" ry="12.5" style="stroke:#555555;stroke-width:0.5;" width="298.1387" x="257.959" y="1226.9707"/><text fill="#F0F0F0" font-family="sans-serif" font-size="12" lengthAdjust="spacing" textLength="278.1387" x="267.959" y="1248.1094">Add VSCodium repository and install with DNF</text><rect fill="#3A3A3A" height="33.9688" rx="12.5" ry="12.5" style="stroke:#555555;stroke-width:0.5;" width="295.7949" x="576.0977" y="1223.5684"/><text fill="#F0F0F0" font-family="sans-serif" font-size="12" lengthAdjust="spacing" textLength="275.7949" x="586.0977" y="1244.707">Add VSCodium repository and install with APT</text><rect fill="#3A3A3A" height="33.9688" rx="12.5" ry="12.5" style="stroke:#555555;stroke-width:0.5;" width="457.1855" x="891.8926" y="1116.1973"/><text fill="#00FF00" font-family="sans-serif" font-size="12" lengthAdjust="spacing" textLength="437.1855" x="901.8926" y="1137.3359">Notify "At least one of Visual Studio Code or Codium is already installed"</text><polygon fill="#3A3A3A" points="780.9658,1286.9395,792.9658,1298.9395,780.9658,1310.9395,768.9658,1298.9395,780.9658,1286.9395" style="stroke:#555555;stroke-width:0.5;"/><rect fill="#3A3A3A" height="33.9688" rx="12.5" ry="12.5" style="stroke:#555555;stroke-width:0.5;" width="146.4453" x="707.7432" y="1330.9395"/><text fill="#F0F0F0" font-family="sans-serif" font-size="12" lengthAdjust="spacing" textLength="126.4453" x="717.7432" y="1352.0781">Check if .zshrc exists</text><polygon fill="#3A3A3A" points="743.9724,1384.9082,817.9592,1384.9082,829.9592,1396.9082,817.9592,1408.9082,743.9724,1408.9082,731.9724,1396.9082,743.9724,1384.9082" style="stroke:#555555;stroke-width:0.5;"/><text fill="#F0F0F0" font-family="sans-serif" font-size="11" lengthAdjust="spacing" textLength="73.9868" x="743.9724" y="1400.7163">.zshrc exists?</text><text fill="#F0F0F0" font-family="sans-serif" font-size="11" lengthAdjust="spacing" textLength="19.0083" x="712.9641" y="1394.314">yes</text><text fill="#F0F0F0" font-family="sans-serif" font-size="11" lengthAdjust="spacing" textLength="13.7017" x="829.9592" y="1394.314">no</text><rect fill="#3A3A3A" height="33.9688" rx="12.5" ry="12.5" style="stroke:#555555;stroke-width:0.5;" width="193.7715" x="595.2515" y="1418.9082"/><text fill="#00FF00" font-family="sans-serif" font-size="12" lengthAdjust="spacing" textLength="173.7715" x="605.2515" y="1440.0469">Notify ".zshrc already exists"</text><rect fill="#3A3A3A" height="33.9688" rx="12.5" ry="12.5" style="stroke:#555555;stroke-width:0.5;" width="121.543" x="809.0229" y="1418.9082"/><text fill="#F0F0F0" font-family="sans-serif" font-size="12" lengthAdjust="spacing" textLength="101.543" x="819.0229" y="1440.0469">Create .zshrc file</text><polygon fill="#3A3A3A" points="780.9658,1458.877,792.9658,1470.877,780.9658,1482.877,768.9658,1470.877,780.9658,1458.877" style="stroke:#555555;stroke-width:0.5;"/><rect fill="#3A3A3A" height="33.9688" rx="12.5" ry="12.5" style="stroke:#555555;stroke-width:0.5;" width="229.8711" x="666.0303" y="1502.877"/><text fill="#F0F0F0" font-family="sans-serif" font-size="12" lengthAdjust="spacing" textLength="209.8711" x="676.0303" y="1524.0156">Ensure /.local/bin is added to PATH</text><rect fill="#3A3A3A" height="33.9688" rx="12.5" ry="12.5" style="stroke:#555555;stroke-width:0.5;" width="289.918" x="636.0068" y="1605.248"/><text fill="#F0F0F0" font-family="sans-serif" font-size="12" lengthAdjust="spacing" textLength="269.918" x="646.0068" y="1626.3867">Check and add alias 'code=codium' to .zshrc</text><polygon fill="#3A3A3A" points="681.7456,1556.8457,880.186,1556.8457,892.186,1568.8457,880.186,1580.8457,681.7456,1580.8457,669.7456,1568.8457,681.7456,1556.8457" style="stroke:#555555;stroke-width:0.5;"/><text fill="#F0F0F0" font-family="sans-serif" font-size="11" lengthAdjust="spacing" textLength="19.0083" x="784.9658" y="1591.0562">yes</text><text fill="#F0F0F0" font-family="sans-serif" font-size="11" lengthAdjust="spacing" textLength="198.4404" x="681.7456" y="1572.6538">Codium is installed and code is not?</text><polygon fill="#3A3A3A" points="780.9658,1659.2168,792.9658,1671.2168,780.9658,1683.2168,768.9658,1671.2168,780.9658,1659.2168" style="stroke:#555555;stroke-width:0.5;"/><rect fill="#3A3A3A" height="33.9688" rx="12.5" ry="12.5" style="stroke:#555555;stroke-width:0.5;" width="364.877" x="598.5273" y="1703.2168"/><text fill="#F0F0F0" font-family="sans-serif" font-size="12" lengthAdjust="spacing" textLength="344.877" x="608.5273" y="1724.3555">Ensure cdd function for ranger launch is present in .zshrc</text><rect fill="#3A3A3A" height="33.9688" rx="12.5" ry="12.5" style="stroke:#555555;stroke-width:0.5;" width="308.9785" x="626.4766" y="1757.1855"/><text fill="#F0F0F0" font-family="sans-serif" font-size="12" lengthAdjust="spacing" textLength="288.9785" x="636.4766" y="1778.3242">Ensure ls and zshrc aliases are present in .zshrc</text><rect fill="#3A3A3A" height="33.9688" rx="12.5" ry="12.5" style="stroke:#555555;stroke-width:0.5;" width="85.3379" x="738.2969" y="1811.1543"/><text fill="#F0F0F0" font-family="sans-serif" font-size="12" lengthAdjust="spacing" textLength="65.3379" x="748.2969" y="1832.293">Reload zsh</text><ellipse cx="780.9658" cy="1876.123" fill="none" rx="11" ry="11" style="stroke:#222222;stroke-width:1.0;"/><ellipse cx="780.9658" cy="1876.123" fill="#222222" rx="6" ry="6" style="stroke:#222222;stroke-width:1.0;"/><line style="stroke:#CCCCCC;stroke-width:1.0;" x1="780.9658" x2="780.9658" y1="67.2969" y2="87.2969"/><polygon fill="#CCCCCC" points="776.9658,77.2969,780.9658,87.2969,784.9658,77.2969,780.9658,81.2969" style="stroke:#CCCCCC;stroke-width:1.0;"/><line style="stroke:#CCCCCC;stroke-width:1.0;" x1="780.9658" x2="780.9658" y1="121.2656" y2="141.2656"/><polygon fill="#CCCCCC" points="776.9658,131.2656,780.9658,141.2656,784.9658,131.2656,780.9658,135.2656" style="stroke:#CCCCCC;stroke-width:1.0;"/><line style="stroke:#CCCCCC;stroke-width:1.0;" x1="424.7043" x2="409.0095" y1="241.2344" y2="241.2344"/><line style="stroke:#CCCCCC;stroke-width:1.0;" x1="409.0095" x2="409.0095" y1="241.2344" y2="263.2344"/><polygon fill="#CCCCCC" points="405.0095,253.2344,409.0095,263.2344,413.0095,253.2344,409.0095,257.2344" style="stroke:#CCCCCC;stroke-width:1.0;"/><line style="stroke:#CCCCCC;stroke-width:1.0;" x1="670.552" x2="686.2468" y1="241.2344" y2="241.2344"/><line style="stroke:#CCCCCC;stroke-width:1.0;" x1="686.2468" x2="686.2468" y1="241.2344" y2="263.2344"/><polygon fill="#CCCCCC" points="682.2468,253.2344,686.2468,263.2344,690.2468,253.2344,686.2468,257.2344" style="stroke:#CCCCCC;stroke-width:1.0;"/><line style="stroke:#CCCCCC;stroke-width:1.0;" x1="409.0095" x2="409.0095" y1="297.2031" y2="315.2031"/><line style="stroke:#CCCCCC;stroke-width:1.0;" x1="409.0095" x2="535.6282" y1="315.2031" y2="315.2031"/><polygon fill="#CCCCCC" points="525.6282,311.2031,535.6282,315.2031,525.6282,319.2031,529.6282,315.2031" style="stroke:#CCCCCC;stroke-width:1.0;"/><line style="stroke:#CCCCCC;stroke-width:1.0;" x1="686.2468" x2="686.2468" y1="297.2031" y2="315.2031"/><line style="stroke:#CCCCCC;stroke-width:1.0;" x1="686.2468" x2="559.6282" y1="315.2031" y2="315.2031"/><polygon fill="#CCCCCC" points="569.6282,311.2031,559.6282,315.2031,569.6282,319.2031,565.6282,315.2031" style="stroke:#CCCCCC;stroke-width:1.0;"/><line style="stroke:#CCCCCC;stroke-width:1.0;" x1="703.5647" x2="547.6282" y1="207.2344" y2="207.2344"/><line style="stroke:#CCCCCC;stroke-width:1.0;" x1="547.6282" x2="547.6282" y1="207.2344" y2="229.2344"/><polygon fill="#CCCCCC" points="543.6282,219.2344,547.6282,229.2344,551.6282,219.2344,547.6282,223.2344" style="stroke:#CCCCCC;stroke-width:1.0;"/><line style="stroke:#CCCCCC;stroke-width:1.0;" x1="858.3669" x2="1014.3035" y1="207.2344" y2="207.2344"/><line style="stroke:#CCCCCC;stroke-width:1.0;" x1="1014.3035" x2="1014.3035" y1="207.2344" y2="229.2344"/><polygon fill="#CCCCCC" points="1010.3035,219.2344,1014.3035,229.2344,1018.3035,219.2344,1014.3035,223.2344" style="stroke:#CCCCCC;stroke-width:1.0;"/><line style="stroke:#CCCCCC;stroke-width:1.0;" x1="547.6282" x2="547.6282" y1="327.2031" y2="345.2031"/><line style="stroke:#CCCCCC;stroke-width:1.0;" x1="547.6282" x2="768.9658" y1="345.2031" y2="345.2031"/><polygon fill="#CCCCCC" points="758.9658,341.2031,768.9658,345.2031,758.9658,349.2031,762.9658,345.2031" style="stroke:#CCCCCC;stroke-width:1.0;"/><line style="stroke:#CCCCCC;stroke-width:1.0;" x1="1014.3035" x2="1014.3035" y1="263.2031" y2="345.2031"/><line style="stroke:#CCCCCC;stroke-width:1.0;" x1="1014.3035" x2="792.9658" y1="345.2031" y2="345.2031"/><polygon fill="#CCCCCC" points="802.9658,341.2031,792.9658,345.2031,802.9658,349.2031,798.9658,345.2031" style="stroke:#CCCCCC;stroke-width:1.0;"/><line style="stroke:#CCCCCC;stroke-width:1.0;" x1="780.9658" x2="780.9658" y1="175.2344" y2="195.2344"/><polygon fill="#CCCCCC" points="776.9658,185.2344,780.9658,195.2344,784.9658,185.2344,780.9658,189.2344" style="stroke:#CCCCCC;stroke-width:1.0;"/><line style="stroke:#CCCCCC;stroke-width:1.0;" x1="780.9658" x2="780.9658" y1="357.2031" y2="377.2031"/><polygon fill="#CCCCCC" points="776.9658,367.2031,780.9658,377.2031,784.9658,367.2031,780.9658,371.2031" style="stroke:#CCCCCC;stroke-width:1.0;"/><line style="stroke:#CCCCCC;stroke-width:1.0;" x1="1165.96" x2="1165.96" y1="588.9512" y2="623.9512"/><polygon fill="#CCCCCC" points="1161.96,613.9512,1165.96,623.9512,1169.96,613.9512,1165.96,617.9512" style="stroke:#CCCCCC;stroke-width:1.0;"/><line style="stroke:#CCCCCC;stroke-width:1.0;" x1="569.5615" x2="569.5615" y1="539.7813" y2="572.5859"/><polygon fill="#CCCCCC" points="565.5615,562.5859,569.5615,572.5859,573.5615,562.5859,569.5615,566.5859" style="stroke:#CCCCCC;stroke-width:1.0;"/><line style="stroke:#CCCCCC;stroke-width:1.0;" x1="569.5615" x2="569.5615" y1="606.5547" y2="665.9512"/><polygon fill="#CCCCCC" points="565.5615,655.9512,569.5615,665.9512,573.5615,655.9512,569.5615,659.9512" style="stroke:#CCCCCC;stroke-width:1.0;"/><line style="stroke:#CCCCCC;stroke-width:1.0;" x1="875.4365" x2="875.4365" y1="539.7813" y2="572.5859"/><polygon fill="#CCCCCC" points="871.4365,562.5859,875.4365,572.5859,879.4365,562.5859,875.4365,566.5859" style="stroke:#CCCCCC;stroke-width:1.0;"/><line style="stroke:#CCCCCC;stroke-width:1.0;" x1="875.4365" x2="875.4365" y1="606.5547" y2="665.9512"/><polygon fill="#CCCCCC" points="871.4365,655.9512,875.4365,665.9512,879.4365,655.9512,875.4365,659.9512" style="stroke:#CCCCCC;stroke-width:1.0;"/><line style="stroke:#CCCCCC;stroke-width:1.0;" x1="629.7349" x2="814.1675" y1="527.7813" y2="527.7813"/><polygon fill="#CCCCCC" points="804.1675,523.7813,814.1675,527.7813,804.1675,531.7813,808.1675,527.7813" style="stroke:#CCCCCC;stroke-width:1.0;"/><line style="stroke:#CCCCCC;stroke-width:1.0;" x1="860.085" x2="569.5615" y1="490.7813" y2="490.7813"/><line style="stroke:#CCCCCC;stroke-width:1.0;" x1="569.5615" x2="569.5615" y1="490.7813" y2="515.7813"/><polygon fill="#CCCCCC" points="565.5615,505.7813,569.5615,515.7813,573.5615,505.7813,569.5615,509.7813" style="stroke:#CCCCCC;stroke-width:1.0;"/><line style="stroke:#CCCCCC;stroke-width:1.0;" x1="936.7056" x2="1165.96" y1="527.7813" y2="527.7813"/><line style="stroke:#CCCCCC;stroke-width:1.0;" x1="1165.96" x2="1165.96" y1="527.7813" y2="554.9824"/><polygon fill="#CCCCCC" points="1161.96,544.9824,1165.96,554.9824,1169.96,544.9824,1165.96,548.9824" style="stroke:#CCCCCC;stroke-width:1.0;"/><line style="stroke:#CCCCCC;stroke-width:1.0;" x1="569.5615" x2="875.4365" y1="665.9512" y2="665.9512"/><line style="stroke:#CCCCCC;stroke-width:1.0;" x1="1398.5693" x2="1398.5693" y1="524.75" y2="559.75"/><polygon fill="#CCCCCC" points="1394.5693,549.75,1398.5693,559.75,1402.5693,549.75,1398.5693,553.75" style="stroke:#CCCCCC;stroke-width:1.0;"/><line style="stroke:#CCCCCC;stroke-width:1.0;" x1="747.1108" x2="242.4814" y1="443.1719" y2="443.1719"/><line style="stroke:#CCCCCC;stroke-width:1.0;" x1="242.4814" x2="242.4814" y1="443.1719" y2="490.7813"/><polygon fill="#CCCCCC" points="238.4814,480.7813,242.4814,490.7813,246.4814,480.7813,242.4814,484.7813" style="stroke:#CCCCCC;stroke-width:1.0;"/><text fill="#F0F0F0" font-family="sans-serif" font-size="11" lengthAdjust="spacing" textLength="39.1445" x="242.4814" y="470.7847">macOS</text><line style="stroke:#CCCCCC;stroke-width:1.0;" x1="814.8208" x2="1398.5693" y1="443.1719" y2="443.1719"/><line style="stroke:#CCCCCC;stroke-width:1.0;" x1="1398.5693" x2="1398.5693" y1="443.1719" y2="490.7813"/><polygon fill="#CCCCCC" points="1394.5693,480.7813,1398.5693,490.7813,1402.5693,480.7813,1398.5693,484.7813" style="stroke:#CCCCCC;stroke-width:1.0;"/><text fill="#F0F0F0" font-family="sans-serif" font-size="11" lengthAdjust="spacing" textLength="50.3701" x="1398.5693" y="470.7847">Other OS</text><line style="stroke:#CCCCCC;stroke-width:1.0;" x1="860.085" x2="860.085" y1="443.1719" y2="490.7813"/><text fill="#F0F0F0" font-family="sans-serif" font-size="11" lengthAdjust="spacing" textLength="29.6377" x="860.085" y="465.7847">Linux</text><line style="stroke:#CCCCCC;stroke-width:1.0;" x1="242.4814" x2="242.4814" y1="524.75" y2="687.9512"/><line style="stroke:#CCCCCC;stroke-width:1.0;" x1="242.4814" x2="768.9658" y1="687.9512" y2="687.9512"/><polygon fill="#CCCCCC" points="758.9658,683.9512,768.9658,687.9512,758.9658,691.9512,762.9658,687.9512" style="stroke:#CCCCCC;stroke-width:1.0;"/><line style="stroke:#CCCCCC;stroke-width:1.0;" x1="860.085" x2="860.085" y1="665.9512" y2="687.9512"/><line style="stroke:#CCCCCC;stroke-width:1.0;" x1="860.085" x2="792.9658" y1="687.9512" y2="687.9512"/><polygon fill="#CCCCCC" points="802.9658,683.9512,792.9658,687.9512,802.9658,691.9512,798.9658,687.9512" style="stroke:#CCCCCC;stroke-width:1.0;"/><line style="stroke:#CCCCCC;stroke-width:1.0;" x1="780.9658" x2="780.9658" y1="411.1719" y2="431.1719"/><polygon fill="#CCCCCC" points="776.9658,421.1719,780.9658,431.1719,784.9658,421.1719,780.9658,425.1719" style="stroke:#CCCCCC;stroke-width:1.0;"/><line style="stroke:#CCCCCC;stroke-width:1.0;" x1="780.9658" x2="780.9658" y1="699.9512" y2="719.9512"/><polygon fill="#CCCCCC" points="776.9658,709.9512,780.9658,719.9512,784.9658,709.9512,780.9658,713.9512" style="stroke:#CCCCCC;stroke-width:1.0;"/><line style="stroke:#CCCCCC;stroke-width:1.0;" x1="780.9658" x2="780.9658" y1="753.9199" y2="773.9199"/><polygon fill="#CCCCCC" points="776.9658,763.9199,780.9658,773.9199,784.9658,763.9199,780.9658,767.9199" style="stroke:#CCCCCC;stroke-width:1.0;"/><line style="stroke:#CCCCCC;stroke-width:1.0;" x1="780.9658" x2="780.9658" y1="807.8887" y2="827.8887"/><polygon fill="#CCCCCC" points="776.9658,817.8887,780.9658,827.8887,784.9658,817.8887,780.9658,821.8887" style="stroke:#CCCCCC;stroke-width:1.0;"/><line style="stroke:#CCCCCC;stroke-width:1.0;" x1="780.9658" x2="780.9658" y1="905.8574" y2="930.2598"/><polygon fill="#CCCCCC" points="776.9658,920.2598,780.9658,930.2598,784.9658,920.2598,780.9658,924.2598" style="stroke:#CCCCCC;stroke-width:1.0;"/><line style="stroke:#CCCCCC;stroke-width:1.0;" x1="826.4143" x2="955.5127" y1="893.8574" y2="893.8574"/><polygon fill="#CCCCCC" points="951.5127,937.2441,955.5127,947.2441,959.5127,937.2441,955.5127,941.2441" style="stroke:#CCCCCC;stroke-width:1.0;"/><line style="stroke:#CCCCCC;stroke-width:1.0;" x1="955.5127" x2="955.5127" y1="893.8574" y2="996.2285"/><line style="stroke:#CCCCCC;stroke-width:1.0;" x1="955.5127" x2="792.9658" y1="996.2285" y2="996.2285"/><polygon fill="#CCCCCC" points="802.9658,992.2285,792.9658,996.2285,802.9658,1000.2285,798.9658,996.2285" style="stroke:#CCCCCC;stroke-width:1.0;"/><line style="stroke:#CCCCCC;stroke-width:1.0;" x1="780.9658" x2="780.9658" y1="964.2285" y2="984.2285"/><polygon fill="#CCCCCC" points="776.9658,974.2285,780.9658,984.2285,784.9658,974.2285,780.9658,978.2285" style="stroke:#CCCCCC;stroke-width:1.0;"/><line style="stroke:#CCCCCC;stroke-width:1.0;" x1="780.9658" x2="780.9658" y1="861.8574" y2="881.8574"/><polygon fill="#CCCCCC" points="776.9658,871.8574,780.9658,881.8574,784.9658,871.8574,780.9658,875.8574" style="stroke:#CCCCCC;stroke-width:1.0;"/><line style="stroke:#CCCCCC;stroke-width:1.0;" x1="780.9658" x2="780.9658" y1="1008.2285" y2="1028.2285"/><polygon fill="#CCCCCC" points="776.9658,1018.2285,780.9658,1028.2285,784.9658,1018.2285,780.9658,1022.2285" style="stroke:#CCCCCC;stroke-width:1.0;"/><line style="stroke:#CCCCCC;stroke-width:1.0;" x1="124.4795" x2="124.4795" y1="1194.166" y2="1226.9707"/><polygon fill="#CCCCCC" points="120.4795,1216.9707,124.4795,1226.9707,128.4795,1216.9707,124.4795,1220.9707" style="stroke:#CCCCCC;stroke-width:1.0;"/><line style="stroke:#CCCCCC;stroke-width:1.0;" x1="124.4795" x2="124.4795" y1="1260.9395" y2="1280.9395"/><polygon fill="#CCCCCC" points="120.4795,1270.9395,124.4795,1280.9395,128.4795,1270.9395,124.4795,1274.9395" style="stroke:#CCCCCC;stroke-width:1.0;"/><line style="stroke:#CCCCCC;stroke-width:1.0;" x1="407.0283" x2="407.0283" y1="1194.166" y2="1226.9707"/><polygon fill="#CCCCCC" points="403.0283,1216.9707,407.0283,1226.9707,411.0283,1216.9707,407.0283,1220.9707" style="stroke:#CCCCCC;stroke-width:1.0;"/><line style="stroke:#CCCCCC;stroke-width:1.0;" x1="407.0283" x2="407.0283" y1="1260.9395" y2="1280.9395"/><polygon fill="#CCCCCC" points="403.0283,1270.9395,407.0283,1280.9395,411.0283,1270.9395,407.0283,1274.9395" style="stroke:#CCCCCC;stroke-width:1.0;"/><line style="stroke:#CCCCCC;stroke-width:1.0;" x1="174.6814" x2="346.855" y1="1182.166" y2="1182.166"/><polygon fill="#CCCCCC" points="336.855,1178.166,346.855,1182.166,336.855,1186.166,340.855,1182.166" style="stroke:#CCCCCC;stroke-width:1.0;"/><line style="stroke:#CCCCCC;stroke-width:1.0;" x1="441.4463" x2="441.4463" y1="1150.166" y2="1155.166"/><line style="stroke:#CCCCCC;stroke-width:1.0;" x1="441.4463" x2="124.4795" y1="1155.166" y2="1155.166"/><line style="stroke:#CCCCCC;stroke-width:1.0;" x1="124.4795" x2="124.4795" y1="1155.166" y2="1170.166"/><polygon fill="#CCCCCC" points="120.4795,1160.166,124.4795,1170.166,128.4795,1160.166,124.4795,1164.166" style="stroke:#CCCCCC;stroke-width:1.0;"/><line style="stroke:#CCCCCC;stroke-width:1.0;" x1="467.2017" x2="723.9951" y1="1182.166" y2="1182.166"/><line style="stroke:#CCCCCC;stroke-width:1.0;" x1="723.9951" x2="723.9951" y1="1182.166" y2="1223.5684"/><polygon fill="#CCCCCC" points="719.9951,1213.5684,723.9951,1223.5684,727.9951,1213.5684,723.9951,1217.5684" style="stroke:#CCCCCC;stroke-width:1.0;"/><line style="stroke:#CCCCCC;stroke-width:1.0;" x1="723.9951" x2="723.9951" y1="1257.5371" y2="1280.9395"/><polygon fill="#CCCCCC" points="719.9951,1270.9395,723.9951,1280.9395,727.9951,1270.9395,723.9951,1274.9395" style="stroke:#CCCCCC;stroke-width:1.0;"/><line style="stroke:#CCCCCC;stroke-width:1.0;" x1="124.4795" x2="723.9951" y1="1280.9395" y2="1280.9395"/><line style="stroke:#CCCCCC;stroke-width:1.0;" x1="665.8167" x2="441.4463" y1="1094.1973" y2="1094.1973"/><line style="stroke:#CCCCCC;stroke-width:1.0;" x1="441.4463" x2="441.4463" y1="1094.1973" y2="1116.1973"/><polygon fill="#CCCCCC" points="437.4463,1106.1973,441.4463,1116.1973,445.4463,1106.1973,441.4463,1110.1973" style="stroke:#CCCCCC;stroke-width:1.0;"/><line style="stroke:#CCCCCC;stroke-width:1.0;" x1="896.115" x2="1120.4854" y1="1094.1973" y2="1094.1973"/><line style="stroke:#CCCCCC;stroke-width:1.0;" x1="1120.4854" x2="1120.4854" y1="1094.1973" y2="1116.1973"/><polygon fill="#CCCCCC" points="1116.4854,1106.1973,1120.4854,1116.1973,1124.4854,1106.1973,1120.4854,1110.1973" style="stroke:#CCCCCC;stroke-width:1.0;"/><line style="stroke:#CCCCCC;stroke-width:1.0;" x1="441.4463" x2="441.4463" y1="1280.9395" y2="1298.9395"/><line style="stroke:#CCCCCC;stroke-width:1.0;" x1="441.4463" x2="768.9658" y1="1298.9395" y2="1298.9395"/><polygon fill="#CCCCCC" points="758.9658,1294.9395,768.9658,1298.9395,758.9658,1302.9395,762.9658,1298.9395" style="stroke:#CCCCCC;stroke-width:1.0;"/><line style="stroke:#CCCCCC;stroke-width:1.0;" x1="1120.4854" x2="1120.4854" y1="1150.166" y2="1298.9395"/><line style="stroke:#CCCCCC;stroke-width:1.0;" x1="1120.4854" x2="792.9658" y1="1298.9395" y2="1298.9395"/><polygon fill="#CCCCCC" points="802.9658,1294.9395,792.9658,1298.9395,802.9658,1302.9395,798.9658,1298.9395" style="stroke:#CCCCCC;stroke-width:1.0;"/><line style="stroke:#CCCCCC;stroke-width:1.0;" x1="780.9658" x2="780.9658" y1="1062.1973" y2="1082.1973"/><polygon fill="#CCCCCC" points="776.9658,1072.1973,780.9658,1082.1973,784.9658,1072.1973,780.9658,1076.1973" style="stroke:#CCCCCC;stroke-width:1.0;"/><line style="stroke:#CCCCCC;stroke-width:1.0;" x1="780.9658" x2="780.9658" y1="1310.9395" y2="1330.9395"/><polygon fill="#CCCCCC" points="776.9658,1320.9395,780.9658,1330.9395,784.9658,1320.9395,780.9658,1324.9395" style="stroke:#CCCCCC;stroke-width:1.0;"/><line style="stroke:#CCCCCC;stroke-width:1.0;" x1="731.9724" x2="692.1372" y1="1396.9082" y2="1396.9082"/><line style="stroke:#CCCCCC;stroke-width:1.0;" x1="692.1372" x2="692.1372" y1="1396.9082" y2="1418.9082"/><polygon fill="#CCCCCC" points="688.1372,1408.9082,692.1372,1418.9082,696.1372,1408.9082,692.1372,1412.9082" style="stroke:#CCCCCC;stroke-width:1.0;"/><line style="stroke:#CCCCCC;stroke-width:1.0;" x1="829.9592" x2="869.7944" y1="1396.9082" y2="1396.9082"/><line style="stroke:#CCCCCC;stroke-width:1.0;" x1="869.7944" x2="869.7944" y1="1396.9082" y2="1418.9082"/><polygon fill="#CCCCCC" points="865.7944,1408.9082,869.7944,1418.9082,873.7944,1408.9082,869.7944,1412.9082" style="stroke:#CCCCCC;stroke-width:1.0;"/><line style="stroke:#CCCCCC;stroke-width:1.0;" x1="692.1372" x2="692.1372" y1="1452.877" y2="1470.877"/><line style="stroke:#CCCCCC;stroke-width:1.0;" x1="692.1372" x2="768.9658" y1="1470.877" y2="1470.877"/><polygon fill="#CCCCCC" points="758.9658,1466.877,768.9658,1470.877,758.9658,1474.877,762.9658,1470.877" style="stroke:#CCCCCC;stroke-width:1.0;"/><line style="stroke:#CCCCCC;stroke-width:1.0;" x1="869.7944" x2="869.7944" y1="1452.877" y2="1470.877"/><line style="stroke:#CCCCCC;stroke-width:1.0;" x1="869.7944" x2="792.9658" y1="1470.877" y2="1470.877"/><polygon fill="#CCCCCC" points="802.9658,1466.877,792.9658,1470.877,802.9658,1474.877,798.9658,1470.877" style="stroke:#CCCCCC;stroke-width:1.0;"/><line style="stroke:#CCCCCC;stroke-width:1.0;" x1="780.9658" x2="780.9658" y1="1364.9082" y2="1384.9082"/><polygon fill="#CCCCCC" points="776.9658,1374.9082,780.9658,1384.9082,784.9658,1374.9082,780.9658,1378.9082" style="stroke:#CCCCCC;stroke-width:1.0;"/><line style="stroke:#CCCCCC;stroke-width:1.0;" x1="780.9658" x2="780.9658" y1="1482.877" y2="1502.877"/><polygon fill="#CCCCCC" points="776.9658,1492.877,780.9658,1502.877,784.9658,1492.877,780.9658,1496.877" style="stroke:#CCCCCC;stroke-width:1.0;"/><line style="stroke:#CCCCCC;stroke-width:1.0;" x1="780.9658" x2="780.9658" y1="1580.8457" y2="1605.248"/><polygon fill="#CCCCCC" points="776.9658,1595.248,780.9658,1605.248,784.9658,1595.248,780.9658,1599.248" style="stroke:#CCCCCC;stroke-width:1.0;"/><line style="stroke:#CCCCCC;stroke-width:1.0;" x1="892.186" x2="935.9248" y1="1568.8457" y2="1568.8457"/><polygon fill="#CCCCCC" points="931.9248,1612.2324,935.9248,1622.2324,939.9248,1612.2324,935.9248,1616.2324" style="stroke:#CCCCCC;stroke-width:1.0;"/><line style="stroke:#CCCCCC;stroke-width:1.0;" x1="935.9248" x2="935.9248" y1="1568.8457" y2="1671.2168"/><line style="stroke:#CCCCCC;stroke-width:1.0;" x1="935.9248" x2="792.9658" y1="1671.2168" y2="1671.2168"/><polygon fill="#CCCCCC" points="802.9658,1667.2168,792.9658,1671.2168,802.9658,1675.2168,798.9658,1671.2168" style="stroke:#CCCCCC;stroke-width:1.0;"/><line style="stroke:#CCCCCC;stroke-width:1.0;" x1="780.9658" x2="780.9658" y1="1639.2168" y2="1659.2168"/><polygon fill="#CCCCCC" points="776.9658,1649.2168,780.9658,1659.2168,784.9658,1649.2168,780.9658,1653.2168" style="stroke:#CCCCCC;stroke-width:1.0;"/><line style="stroke:#CCCCCC;stroke-width:1.0;" x1="780.9658" x2="780.9658" y1="1536.8457" y2="1556.8457"/><polygon fill="#CCCCCC" points="776.9658,1546.8457,780.9658,1556.8457,784.9658,1546.8457,780.9658,1550.8457" style="stroke:#CCCCCC;stroke-width:1.0;"/><line style="stroke:#CCCCCC;stroke-width:1.0;" x1="780.9658" x2="780.9658" y1="1683.2168" y2="1703.2168"/><polygon fill="#CCCCCC" points="776.9658,1693.2168,780.9658,1703.2168,784.9658,1693.2168,780.9658,1697.2168" style="stroke:#CCCCCC;stroke-width:1.0;"/><line style="stroke:#CCCCCC;stroke-width:1.0;" x1="780.9658" x2="780.9658" y1="1737.1855" y2="1757.1855"/><polygon fill="#CCCCCC" points="776.9658,1747.1855,780.9658,1757.1855,784.9658,1747.1855,780.9658,1751.1855" style="stroke:#CCCCCC;stroke-width:1.0;"/><line style="stroke:#CCCCCC;stroke-width:1.0;" x1="780.9658" x2="780.9658" y1="1791.1543" y2="1811.1543"/><polygon fill="#CCCCCC" points="776.9658,1801.1543,780.9658,1811.1543,784.9658,1801.1543,780.9658,1805.1543" style="stroke:#CCCCCC;stroke-width:1.0;"/><line style="stroke:#CCCCCC;stroke-width:1.0;" x1="780.9658" x2="780.9658" y1="1845.123" y2="1865.123"/><polygon fill="#CCCCCC" points="776.9658,1855.123,780.9658,1865.123,784.9658,1855.123,780.9658,1859.123" style="stroke:#CCCCCC;stroke-width:1.0;"/><!--SRC=[hLPDRziu4BtxLmpQWsqW_a1t5mNYRXQkKsyBB98YRdgdoP55X285abh7FVItToZAicHBGRTO2WWYScRUuyoRaTsJr3cpB8CjuqyxQmejLaOP2w_VV0ZFmDKMBcN2xANUGSAKmyQ9m8GLog-DzfNpUXwUXWdZNluh_U7zESnlo_1qMHehq5PMVvIhQMMjsLU7gt8rcUvbffZ62x3VopKOUEaLmZiUTgyhiZUMwHtQ2JSwaRk9rCupfPYNHaySjpBtxsQbmyrWG4VM3mP0wthfda0cu5E4mg65FTFUWJTGHG2JJhB393SkNKIF1sGYsXBXmYzY88enUa2N6-qGf8FX0TqGYFNmCFnh7E9h6D7UkBG-UbGWPVYfIm6VfIDufaM8WS_82y-s2hiZH3g5XkaiNj7DpW8kQbkaciD8cpFlEedhsxVp-SsTyJ8vmAjpNjfuI48bmet2oudQgsDU6rXQo6JGZLeZpkVhTGDnyoJpFAZpb6ze5l4C9aB4WjoYHvj9ZMKLxpSmAZJBS1mjIKsUfp2YVN_8ySI4iy0jO_n-SvQK3NeeSi4ynafKIk0co-ZTKV43qOycmwt5_U8iuZzI5y_jYA7KQnJ6CcesZzoZwA_eVw1mUxTUj7pBV0UqnssXVV7_eYq_V-b06prgL-IviGG37NT_IMONhY18_rPkYuwIDvVp9czJgILtAiGzNTd2HNL_WilzfWUxnYMyAAnAWt_J-3bs1L67F2ZIkV0lpP9ZTwQewA3ko-kDAIp7tkFGsZaDGRR3LY_0A0wxAqY-9LV0l37g2j3pwRWnZKZmD4FAj7QNdoPPhXZXnsYdSjF5qkWuSJbocKWEHgExRBrLYhoSdr-bAvY2ZI-4DB0oWlBFwUyu30nwbKKMs5ItGB6eQTwXBEiKh6cqT5hty7-CaZscI95sMleLc1DPr5mUkRTpK_R-2wFrKnNdwwRYrDVuTTlzT9DVBuKunRL8yqvwOmyj_cKTMZrUTLniRihLBMubqvCjwLtyAa2hhNzbT2yzA6IKUz88c4ujjChAbALFwE5KtXTcUosmwJUNMbvz84_gQMttoAI7TkLwP1D3d5EvJCAAp4bqbNSY5Lwo_a2pn29ydqsLuKpDjbAN5nU2XWlDWy_BBnyRdTgX-B9CPKlGBdrmUwuMqnDiAJPTHJBwvH7S_kHbp650YrHxMNBoJ0hDoycIKAMgSQ0ORQO1FxVeaCORtQ8PwnX0nHyintGI1wGTEkZpUq1bMEcm68I9-WC0]--></g></svg>